<?xml version="1.0" encoding="UTF-8"?>
<svg id="_레이어_2" data-name="레이어 2" xmlns="http://www.w3.org/2000/svg" viewBox="0 0 56.35 43.74">
  <defs>
    <style>
      .cls-1 {
        fill: #c8bdaf;
      }

      .cls-1, .cls-2, .cls-3 {
        stroke-width: 0px;
      }

      .cls-2 {
        fill: #c6b1d5;
      }

      .cls-3 {
        fill: #d8d93f;
      }
    </style>
  </defs>
  <g id="_레이어_2-2" data-name=" 레이어 2">
    <g>
      <circle class="cls-1" cx="27.23" cy="6.94" r="5.6"/>
      <path class="cls-3" d="M6.03,16.44h0c2.32,0,4.2,1.88,4.2,4.2v18.9c0,2.32-1.88,4.2-4.2,4.2h0c-2.32,0-4.2-1.88-4.2-4.2v-18.9c0-2.32,1.88-4.2,4.2-4.2Z"/>
      <path class="cls-2" d="M55.13,19.04c-.3-1.7-2.2-2.9-4.2-2.6-1.9.3-3.3,1.9-3,3.5,0,.8.2,7.1.2,8.8,0,5.1-3.6,8.6-8.7,8.6s-8.7-3.5-8.7-8.6,0-8,.2-8.7c.3-1.7-1.1-3.3-3-3.6-2-.3-3.8.9-4.2,2.6-.2,1.1-.2,9.6-.2,9.7,0,8.7,6.7,15,15.9,15s15.9-6.3,15.9-15,0-8.6-.2-9.7h0Z"/>
      <path class="cls-3" d="M9.53,10.24c1.3-.9,2.3-2.3,2.5-3.9.2-1.9-.4-3.6-1.9-4.4-1.2-.7-2.7-.5-4.1.2-1.4-.8-2.9-.9-4.1-.2C.53,2.74-.17,4.44.03,6.34c.2,1.6,1.2,3,2.5,3.9l3.2,2.1c.1.1.3.1.5,0l3.2-2.1s.1,0,.1,0Z"/>
      <path class="cls-2" d="M54.13,13.74c-.4,0-.9-.1-1.3-.4l-5.9-4.2c-.5-.4-.9-1-.9-1.7s.2-1.3.7-1.7l5.9-5.2c.9-.8,2.3-.7,3.1.2.8.9.7,2.3-.2,3.1l-3.8,3.4,3.7,2.6c1,.7,1.2,2.1.5,3-.4.6-1.1.9-1.8.9h0Z"/>
    </g>
  </g>
</svg>