<?xml version="1.0" encoding="UTF-8"?>
<svg id="_레이어_2" data-name="레이어 2" xmlns="http://www.w3.org/2000/svg" viewBox="0 0 238.79 69.65">
  <defs>
    <style>
      .cls-1, .cls-2, .cls-3, .cls-4, .cls-5, .cls-6, .cls-7, .cls-8 {
        fill: none;
      }

      .cls-1, .cls-9, .cls-10, .cls-11, .cls-12, .cls-13, .cls-14, .cls-15 {
        stroke-width: 0px;
      }

      .cls-16, .cls-17, .cls-2, .cls-18, .cls-19, .cls-20, .cls-3, .cls-4, .cls-5, .cls-21, .cls-22, .cls-23, .cls-24, .cls-25, .cls-26, .cls-27, .cls-28, .cls-29, .cls-30, .cls-31, .cls-32, .cls-33, .cls-34, .cls-6, .cls-7, .cls-8 {
        stroke-miterlimit: 10;
      }

      .cls-16, .cls-18, .cls-19, .cls-20, .cls-3, .cls-4, .cls-5, .cls-21, .cls-22, .cls-23, .cls-24, .cls-25, .cls-26, .cls-27, .cls-28, .cls-29, .cls-30, .cls-31, .cls-32, .cls-6, .cls-7, .cls-8 {
        stroke-width: .5px;
      }

      .cls-16, .cls-20, .cls-4, .cls-22, .cls-23, .cls-27, .cls-28, .cls-30, .cls-31, .cls-32, .cls-8 {
        stroke: #231815;
      }

      .cls-16, .cls-3, .cls-4, .cls-5 {
        stroke-linecap: round;
      }

      .cls-16, .cls-28 {
        fill: #a3c753;
      }

      .cls-17 {
        stroke-width: .51px;
      }

      .cls-17, .cls-35, .cls-33, .cls-34 {
        fill: #231815;
      }

      .cls-17, .cls-33, .cls-34 {
        stroke: #fff;
      }

      .cls-2 {
        stroke: #edb780;
      }

      .cls-2, .cls-33 {
        stroke-width: .54px;
      }

      .cls-18 {
        fill: #7da43f;
      }

      .cls-18, .cls-26, .cls-29, .cls-6 {
        stroke: #221714;
      }

      .cls-19 {
        fill: #fff;
        stroke: #050101;
      }

      .cls-20 {
        fill: #7fae6a;
      }

      .cls-3 {
        stroke: #040000;
      }

      .cls-5, .cls-24, .cls-7 {
        stroke: #070001;
      }

      .cls-21 {
        fill: #89684f;
      }

      .cls-21, .cls-25 {
        stroke: #070102;
      }

      .cls-22, .cls-11 {
        fill: #85929c;
      }

      .cls-23 {
        fill: #c2ccd3;
      }

      .cls-24 {
        fill: #c1cbd3;
      }

      .cls-25 {
        fill: #ba9583;
      }

      .cls-26 {
        fill: #598a35;
      }

      .cls-27 {
        fill: #c7ccd4;
      }

      .cls-29 {
        fill: #c5cfd6;
      }

      .cls-30 {
        fill: #76b072;
      }

      .cls-31 {
        fill: #844b48;
      }

      .cls-32 {
        fill: #79bc45;
      }

      .cls-35 {
        font-family: Yeongdeok-Sea, 'Yeongdeok Sea';
        font-size: 15.94px;
      }

      .cls-35, .cls-36 {
        isolation: isolate;
      }

      .cls-34 {
        stroke-width: .55px;
      }

      .cls-9 {
        fill: #f4c928;
      }

      .cls-10 {
        fill: #7a8a95;
      }

      .cls-12 {
        fill: #72828b;
      }

      .cls-13 {
        fill: #7e858b;
      }

      .cls-14 {
        fill: #f2c029;
      }

      .cls-15 {
        fill: #edb780;
      }
    </style>
  </defs>
  <g id="_레이어_2-2" data-name=" 레이어 2">
    <g>
      <g>
        <g>
          <g>
            <g>
              <path class="cls-25" d="m36.6,21.62c.24-.97.52-1.92.84-2.8.99.04,2.05,0,2.97-.08-.13.84-.27,1.79-.39,2.8-.92.05-2.27.1-3.41.09h-.01Z"/>
              <path class="cls-25" d="m37.44,18.82c.43-1.18.94-2.22,1.53-2.99,2.88-3.68,1.96,0,1.96,0,0,0-.25,1.2-.52,2.9-.91.08-1.98.13-2.97.08h0Z"/>
              <path class="cls-25" d="m39.71,25.51c-.05,2.4.22,4.41,1.22,4.82l-5.64-.58s.14-1.8.52-4.15c1.12.08,2.75,0,3.9-.1h0Z"/>
              <path class="cls-25" d="m40.02,21.53c-.16,1.31-.28,2.7-.31,3.97-1.15.09-2.78.18-3.9.1.2-1.23.46-2.62.79-3.98,1.15.01,2.5-.04,3.41-.09h.01Z"/>
            </g>
            <path class="cls-28" d="m42.37,11s7.94,5.36,9.9,10.53c1.91,5.05,6.5-11.55-8.74-10.63-.37.02-.76.06-1.16.1Z"/>
            <path class="cls-26" d="m42.37,11s11.1-7.77,14.51,2.38c.06.17-.15.31-.3.2-1.13-.85-6.1-3.8-14.21-2.59h0Z"/>
            <path class="cls-18" d="m42.04,11.02s0-6.6,1.94-8.36c1.81-1.64,5.19-3.48,9.95-1.64.15.06.14.28-.02.31-1.66.42-6.87,2.28-9.12,9.54l-2.74.15h0Z"/>
            <path class="cls-28" d="m43.53,10.9s-1.48-12.79-14.22-9.01c-.1.03-.09.16,0,.2,8.13,3.55,8.79,6.07,12.15,9.2l2.06-.39h.01Z"/>
            <path class="cls-3" d="m52.28,16.52s-1.33.44-1.59,2.22"/>
            <path class="cls-3" d="m50.7,14.51s-1.33.44-1.59,2.22"/>
            <path class="cls-3" d="m48.92,12.69s-1.33.44-1.59,2.22"/>
            <path class="cls-3" d="m52.28,9.16s-1.38.38-1.23,1.86"/>
            <path class="cls-3" d="m54.59,10.6s-.79.27-.79,1.38"/>
            <path class="cls-3" d="m49.51,9.33s-.79.27-.79,1.38"/>
            <path class="cls-16" d="m50.46,2.89s-1.79-.35-2.06-1.04"/>
            <path class="cls-16" d="m48.37,4.61s-1.79-.35-2.06-1.04"/>
            <path class="cls-16" d="m46.3,6.76s-1.79-.35-2.06-1.04"/>
            <path class="cls-16" d="m32.76,3.57s.41-.73,1.74-.93"/>
            <path class="cls-16" d="m34.97,4.77s.41-.73,1.74-.93"/>
            <path class="cls-16" d="m39.33,8.71s.41-.73,1.74-.93"/>
            <path class="cls-16" d="m37.15,6.57s.41-.73,1.74-.93"/>
            <path class="cls-26" d="m42.04,11.02s-6.56-8.66-13.91-2.25c-.07.06-.04.19.06.2,3.17.2,8.28.4,12.4,2.05h1.46,0Z"/>
            <path class="cls-28" d="m42.37,10.72s-11.96-2.53-12.77,6.24c-.01.11.13.21.22.14,2.48-1.96,5.58-4.83,11.64-5.81l.9-.57h0Z"/>
            <circle class="cls-21" cx="43.55" cy="12.27" r="2.47"/>
            <circle class="cls-31" cx="40.2" cy="13.07" r="2.47"/>
            <path class="cls-4" d="m34.68,7.97s-.47.65-.33,1.47"/>
            <path class="cls-4" d="m32.16,7.58s-.47.65-.33,1.47"/>
            <path class="cls-4" d="m37.62,8.43s-.47.65-.33,1.47"/>
            <path class="cls-4" d="m36.21,11.54s-.14.54.17,1"/>
            <path class="cls-4" d="m34.43,12.38s-.14.54.17,1"/>
            <path class="cls-4" d="m32.43,13.7s-.14.54.17,1"/>
          </g>
          <g>
            <g>
              <path class="cls-25" d="m30.71,23.8c-.2-.82-.44-1.62-.71-2.37-.83.04-1.74,0-2.51-.07.11.71.23,1.52.33,2.36.77.04,1.92.09,2.89.08Z"/>
              <path class="cls-25" d="m30,21.43c-.36-1-.79-1.88-1.3-2.53-2.43-3.11-1.65,0-1.65,0,0,0,.21,1.01.44,2.46.77.06,1.68.11,2.51.07Z"/>
              <path class="cls-25" d="m28.08,27.09c.05,2.03-.19,3.73-1.03,4.08l4.77-.49s-.12-1.52-.44-3.51c-.95.07-2.33,0-3.3-.08Z"/>
              <path class="cls-25" d="m27.82,23.73c.13,1.11.24,2.28.26,3.36.97.08,2.35.15,3.3.08-.17-1.04-.39-2.21-.67-3.37-.97.01-2.11-.04-2.89-.08h0Z"/>
            </g>
            <path class="cls-28" d="m25.83,14.82s-6.71,4.53-8.37,8.91c-1.61,4.27-5.5-9.76,7.39-8.99.32.02.64.05.98.08Z"/>
            <path class="cls-26" d="m25.83,14.82s-9.39-6.57-12.27,2.02c-.05.15.13.27.25.17.95-.72,5.16-3.21,12.02-2.19Z"/>
            <path class="cls-18" d="m26.11,14.84s0-5.58-1.64-7.07c-1.53-1.38-4.39-2.94-8.41-1.39-.13.05-.12.23.01.27,1.4.35,5.81,1.93,7.72,8.06,0,0,2.32.13,2.32.13Z"/>
            <path class="cls-28" d="m24.86,14.74s1.25-10.81,12.02-7.62c.08.02.07.14,0,.17-6.87,3-7.44,5.13-10.27,7.78l-1.74-.33h-.01Z"/>
            <path class="cls-3" d="m17.45,19.49s1.13.38,1.34,1.88"/>
            <path class="cls-3" d="m18.79,17.79s1.13.38,1.34,1.88"/>
            <path class="cls-3" d="m20.29,16.25s1.13.38,1.34,1.88"/>
            <path class="cls-3" d="m17.45,13.26s1.17.32,1.04,1.57"/>
            <path class="cls-3" d="m15.5,14.48s.67.23.67,1.16"/>
            <path class="cls-3" d="m19.8,13.41s.67.23.67,1.16"/>
            <path class="cls-16" d="m18.99,7.96s1.51-.29,1.75-.88"/>
            <path class="cls-16" d="m20.76,9.42s1.51-.29,1.75-.88"/>
            <path class="cls-16" d="m22.51,11.23s1.51-.29,1.75-.88"/>
            <path class="cls-16" d="m33.96,8.54s-.35-.62-1.47-.79"/>
            <path class="cls-16" d="m32.09,9.55s-.35-.62-1.47-.79"/>
            <path class="cls-16" d="m28.4,12.88s-.35-.62-1.47-.79"/>
            <path class="cls-16" d="m30.24,11.07s-.35-.62-1.47-.79"/>
            <path class="cls-26" d="m26.11,14.84s5.55-7.32,11.77-1.9c.06.05.03.16-.05.17-2.68.17-7,.33-10.48,1.74h-1.24Z"/>
            <path class="cls-28" d="m25.83,14.58s10.12-2.14,10.79,5.28c0,.1-.11.18-.19.12-2.09-1.65-4.72-4.09-9.85-4.92l-.76-.48h.01Z"/>
            <circle class="cls-21" cx="24.84" cy="15.89" r="2.09"/>
            <circle class="cls-31" cx="27.67" cy="16.57" r="2.09"/>
            <path class="cls-4" d="m32.33,12.26s.39.55.28,1.24"/>
            <path class="cls-4" d="m34.47,11.93s.39.55.28,1.24"/>
            <path class="cls-4" d="m29.85,12.65s.39.55.28,1.24"/>
            <path class="cls-4" d="m31.04,15.28s.12.46-.14.84"/>
            <path class="cls-4" d="m32.54,15.99s.12.46-.14.84"/>
            <path class="cls-4" d="m34.24,17.1s.12.46-.14.84"/>
          </g>
          <g>
            <path class="cls-19" d="m21.61,33.42s1.43,1.95.65,3.37c-.78,1.43,5.71-2.59,5.97-3.44.26-.84,2.21,4.35,2.59,6.94.36,2.41,4.26-7.92,5.36-8.05,1.1-.13,2.95,5.19,2.95,5.19l1.56-2.02,1.64,1.36c.53.44,1.31.37,1.76-.16,1.12-1.33,3.13-3.71,4.13-4.89,2.1-2.49,8.04,8.56,8.04,8.56l1.87-2.31c-3.34-3.23-8.54-8.23-11.17-10.71-4.07-3.84-6.23,1.82-10.12,0s-3.42,1.22-5.97,0c-1.26-.6-5.23-2.16-7.27,0l-3.29,4.36-1,1.32.87,1.25,1.43-.78h0Z"/>
            <path class="cls-30" d="m61.22,40.98s-1.28-1.23-3.11-3l-1.87,2.31s-5.94-11.05-8.04-8.56c-1,1.18-3.01,3.56-4.13,4.89-.44.53-1.23.6-1.76.16l-1.64-1.36-1.56,2.02s-1.85-5.32-2.95-5.19c-1.1.13-4.99,10.45-5.36,8.05-.39-2.6-2.34-7.79-2.59-6.94-.26.84-6.75,4.86-5.97,3.44.78-1.43-.65-3.37-.65-3.37l-1.43.78-.87-1.25-.08.11-6.01,7.96s-2.34,1.56-3.63,2.08c-1.3.52-9.08,9.37-9.08,9.37l9.34,1.53s9.86-1.56,11.94,0,32.69,0,32.69,0l17.37-.31-10.62-12.71h.01Z"/>
          </g>
        </g>
        <g>
          <g>
            <path class="cls-32" d="m28.01,47.69c-3.11.78-4.92,2.26-5.97,3.79h0l.94,3.39-.93-3.38h-.01c-1.56,2.3-1.42,4.73-1.38,5.11h.02c.39-.29,7.24-5.46,7.31-5.52h0l.04-3.39h-.02Z"/>
            <path class="cls-32" d="m30.39,49.27h0l2.63-1.99s0-.04.02-.06c0-.05-.14-.05-.19-.05-1.93.02-3.45.17-4.82.51h0l-.04,3.39h.01l2.4-1.81h-.01Z"/>
            <path class="cls-32" d="m30.4,49.27h0l-2.41,1.82h0l-7.31,5.52v.06c4.03,1.37,6.9-.27,8.85-2.56h0s-4.06-1.12-4.06-1.12l4.06,1.11h0c1.19-1.39,2.04-3.01,2.61-4.34h0l-1.74-.48h0Z"/>
            <path class="cls-32" d="m32.15,49.74c.47-1.1.75-2,.86-2.4,0-.02-.02-.04-.04-.02-.37.28-2.44,1.84-2.57,1.94h0l1.74.47h0Z"/>
            <line class="cls-1" x1="28.02" y1="47.68" x2="27.99" y2="51.09"/>
            <line class="cls-1" x1="32.15" y1="49.75" x2="30.39" y2="49.27"/>
            <line class="cls-1" x1="29.54" y1="54.1" x2="25.47" y2="52.99"/>
            <line class="cls-1" x1="22.04" y1="51.48" x2="22.98" y2="54.87"/>
          </g>
          <g>
            <path class="cls-32" d="m22.38,44.97c-2.57,1.93-3.66,3.99-4.03,5.82h0l2.18,2.76-2.17-2.75h-.01c-.54,2.73.54,4.91.72,5.25h.02c.25-.43,4.54-7.86,4.59-7.94h0l-1.29-3.14h0Z"/>
            <path class="cls-32" d="m25.19,45.5h0l1.65-2.86v-.06c0-.06-.15,0-.2.03-1.77.76-3.11,1.5-4.24,2.35h0l1.28,3.13h.01l1.5-2.6h0Z"/>
            <path class="cls-32" d="m25.19,45.5h0l-1.51,2.61h0l-4.59,7.93.03.05c4.23-.3,6.24-2.93,7.15-5.8h0l-4.17.56,4.18-.56h0c.55-1.74.7-3.57.71-5.01h0l-1.79.24v-.02Z"/>
            <path class="cls-32" d="m26.99,45.26c0-1.2-.09-2.13-.14-2.54,0-.02-.03-.03-.04,0-.23.4-1.53,2.65-1.61,2.79h0l1.78-.24h.01Z"/>
            <line class="cls-1" x1="22.39" y1="44.97" x2="23.68" y2="48.12"/>
            <line class="cls-1" x1="26.99" y1="45.26" x2="25.19" y2="45.5"/>
            <line class="cls-1" x1="26.28" y1="50.29" x2="22.1" y2="50.85"/>
            <line class="cls-1" x1="18.35" y1="50.79" x2="20.53" y2="53.55"/>
          </g>
          <g>
            <g>
              <g>
                <path class="cls-9" d="m15.42,47.84c-.45-.06-.92-.1-1.39-.1-5.26,0-9.53,3.61-9.53,8.05s4.27,8.05,9.53,8.05c1.31,0,2.56-.22,3.7-.63h0c3.43-6.35.39-12.05-2.31-15.38h0Z"/>
                <path class="cls-14" d="m23.56,55.8c0-4.05-3.53-7.39-8.13-7.96h0c2.69,3.33,5.74,9.03,2.31,15.38h0c3.42-1.22,5.82-4.08,5.82-7.42Z"/>
                <ellipse class="cls-8" cx="14.03" cy="55.8" rx="9.53" ry="8.05"/>
              </g>
              <ellipse class="cls-20" cx="14.03" cy="49" rx=".72" ry=".37"/>
            </g>
            <g>
              <g>
                <g>
                  <path class="cls-14" d="m13.91,57.87c.47,2.4.51,7.17-5.23,10.52.17.01.35.02.53.02,3.94,0,7.13-2.7,7.13-6.02,0-1.8-.94-3.42-2.43-4.52Z"/>
                  <path class="cls-9" d="m13.91,57.87c-1.26-.93-2.9-1.5-4.7-1.5-3.94,0-7.13,2.7-7.13,6.02s2.91,5.77,6.6,6c5.74-3.36,5.7-8.12,5.23-10.52Z"/>
                </g>
                <ellipse class="cls-8" cx="9.21" cy="62.39" rx="7.13" ry="6.02"/>
              </g>
              <ellipse class="cls-20" cx="9.21" cy="57.6" rx=".54" ry=".28"/>
            </g>
          </g>
        </g>
        <g>
          <path class="cls-24" d="m53.23,63.59v2.49s.14,1.79,1.04,2.42,9.76,1.68,13.04,0c0,0,.83-.58,1.18-2.6,0,0,.17-2.68-.31-3.51s-1.97-11.54-1.97-11.54l-11.87.44s-1.11,12.3-1.11,12.3Z"/>
          <rect class="cls-12" x="54.33" y="51.82" width="11.83" height="3.56"/>
          <g>
            <path class="cls-12" d="m68,61.85c-.81.91-2.03,1.79-3.77,2.06-2.91.44-8.36-.17-10.98-.52l-.02.2v2.49s.14,1.79,1.04,2.42,9.76,1.68,13.04,0c0,0,.83-.58,1.18-2.6,0,0,.17-2.68-.31-3.51-.05-.08-.11-.27-.18-.54Z"/>
            <path class="cls-7" d="m53.24,63.39l-.02.2v2.49s.14,1.79,1.04,2.42,9.76,1.68,13.04,0c0,0,.83-.58,1.18-2.6,0,0,.17-2.68-.31-3.51-.05-.08-.11-.27-.18-.54"/>
          </g>
          <g>
            <path class="cls-23" d="m58.54,63.94h-4.26c-1.04-.04-1.87-.71-1.87-1.54l.59-8.33c.03-.38.29-.71.66-.81.17-.05.38-.08.63-.08.16,0,.29,0,.41.04.42.08.71.46.71.89v2.43h3.46s1.26-.02,1.48.78c0,0,.09.59-.36.61,0,0,.66.09.66.78s-.55.84-.55.84c0,0,.55.18.55.89s-.61.7-.61.7c0,0,.67.06.67.81s-.72.75-.72.75c0,0,.18.23.09.57s-.45.48-.45.48c0,0-.23.18-1.09.18h0Z"/>
            <g>
              <path class="cls-12" d="m60.72,61.96c0-.75-.67-.81-.67-.81,0,0,.61,0,.61-.7s-.55-.89-.55-.89c0,0,.55-.15.55-.84s-.66-.78-.66-.78c.45-.02.36-.61.36-.61-.22-.8-1.48-.78-1.48-.78h-3.46v-2.43c0-.43-.29-.81-.71-.89-.12-.02-.25-.04-.41-.04s-.29,0-.41.03l.8,3.52c.02.11.12.18.23.18h3.99c.15,0,.29.1.34.24.31.91,1.25,4.19-.73,6.32-.1.11-.25.17-.4.17h-4.89c.3.17.67.28,1.06.29h4.25c.86,0,1.09-.18,1.09-.18,0,0,.36-.15.45-.48.09-.33-.09-.57-.09-.57,0,0,.72,0,.72-.75h0Z"/>
              <path class="cls-8" d="m53.23,63.64c.3.17.67.28,1.06.29h4.25c.86,0,1.09-.18,1.09-.18,0,0,.36-.15.45-.48.09-.33-.09-.57-.09-.57,0,0,.72,0,.72-.75s-.67-.81-.67-.81c0,0,.61,0,.61-.7s-.55-.89-.55-.89c0,0,.55-.15.55-.84s-.66-.78-.66-.78c.45-.02.36-.61.36-.61-.22-.8-1.48-.78-1.48-.78h-3.46v-2.43c0-.43-.29-.81-.71-.89-.12-.02-.25-.04-.41-.04s-.29,0-.41.03"/>
            </g>
            <line class="cls-4" x1="57.41" y1="57.94" x2="60.01" y2="57.94"/>
            <line class="cls-4" x1="57.41" y1="59.56" x2="60.11" y2="59.56"/>
            <line class="cls-4" x1="57.41" y1="61.15" x2="60.05" y2="61.15"/>
            <line class="cls-4" x1="57.41" y1="62.71" x2="59.98" y2="62.71"/>
          </g>
          <g>
            <path class="cls-24" d="m66.62,62.71c.8.05,1.8-.51,1.8-1.55s-.73-8.11-.73-8.11c-.03-.38-.29-.71-.66-.81-.17-.05,0-.05-.25-.05-.16,0-.29,0-.41.04-.42.08-.71.46-.71.89l-.03,2.69h-3.12s-1.17-.05-1.45.52c0,0-.15.73.3.75,0,0-.66.09-.66.78s.61.7.61.7c0,0-.61.1-.61.8s.61.7.61.7c0,0-.61,0-.61.76s.72.75.72.75c0,0-.18.37-.09.7.02.07.05.13.08.18.13.2.38.3.62.29.2,0,.52-.02.98-.02.86,0,2.27,0,2.27,0h1.34Z"/>
            <line class="cls-8" x1="63.73" y1="57.08" x2="61.37" y2="57.08"/>
            <line class="cls-8" x1="63.73" y1="58.56" x2="61.32" y2="58.56"/>
            <line class="cls-8" x1="63.73" y1="60.06" x2="61.32" y2="60.07"/>
            <g>
              <path class="cls-12" d="m67.7,53.05c-.01-.19-.09-.36-.2-.5-.16,1.65-.56,6-.6,6.82-.07,1.54-1.53,1.44-1.53,1.44h-4.66v.03c0,.75.72.75.72.75,0,0-.18.37-.09.7.02.07.05.13.08.18.13.2.38.3.62.29.2,0,.52-.02.98-.02.86,0,2.27,0,2.27,0h1.34c.8.05,1.8-.51,1.8-1.55s-.73-8.11-.73-8.11v-.02Z"/>
              <path class="cls-8" d="m60.71,60.8v.03c0,.75.72.75.72.75,0,0-.18.37-.09.7.02.07.05.13.08.18.13.2.38.3.62.29.2,0,.52-.02.98-.02.86,0,2.27,0,2.27,0h1.34c.8.05,1.8-.51,1.8-1.55s-.73-8.11-.73-8.11c-.01-.19-.09-.36-.2-.5"/>
            </g>
            <line class="cls-8" x1="63.73" y1="61.58" x2="61.43" y2="61.58"/>
          </g>
          <path class="cls-22" d="m60.03,39.21c-6.49.3-7.07,5.25-7.08,5.27.08.26.19.47.32.61.27.29.52.9.92,1.04,1.43.49,3.7-.22,5.84-.22s4.43.63,5.88.13c.4-.14.7-.66.97-.95.12-.13.22-.35.29-.61,0-.04-.66-5.57-7.14-5.27Z"/>
          <g>
            <path class="cls-29" d="m61.44,35.2c-.43-.24-.9-.36-1.45-.36-1.54,0-2.78,1.08-2.78,2.41,0,.23.04.46.11.67.79-.21,1.68-.33,2.66-.33.21,0,.41,0,.61.02.45-.86.7-1.71.85-2.4"/>
            <path class="cls-10" d="m61.74,35.39s-.07-.05-.11-.07h0s-.07-.05-.11-.07c0,0-.02,0-.02,0l-.39-.08c-.12.62-.47,1.65-.82,2.41.03,0,.37.06.4.06h.13c.66.04,1.29.14,1.86.28.07-.21.1-.42.1-.65,0-.75-.4-1.43-1.03-1.87h-.01Z"/>
            <path class="cls-6" d="m59.98,34.84c1.54,0,2.78,1.08,2.78,2.41,0,.23-.03.44-.1.65-.79-.21-1.69-.31-2.68-.31"/>
          </g>
          <path class="cls-27" d="m67.25,41.76c-.69-2.38-3.23-4.16-7.22-4.16s-6.46,1.94-7.22,4.16c-.18.52.04,2.46.14,2.73s.59-4.97,7.08-5.27c6.48-.3,7.04,5.66,7.14,5.27.15-.59.23-2.21.07-2.73h.01Z"/>
          <g>
            <path class="cls-11" d="m64.5,40.26c2.36,1.53,2.67,4.2,2.68,4.23.19-.67.23-2.21.07-2.73-.36-1.22-1.2-2.29-2.47-3.03"/>
            <path class="cls-8" d="m64.08,40.08c2.61,1.5,2.99,3.86,2.99,3.89.25-.86.33-1.69.18-2.21-.38-1.31-1.32-2.44-2.75-3.18"/>
          </g>
          <g>
            <g>
              <path class="cls-29" d="m67.96,47.65l.31,5.95c0,.15,0,.31-.06.46-.15.4-.59,1.07-1.91,1.1s-1.86-.61-2.1-1.03c-.11-.19-.15-.41-.13-.63l.71-6.02s.44-1.2,1.68-1.18c.83.02,1.22.53,1.39.88.07.15.11.31.12.48h-.01Z"/>
              <path class="cls-12" d="m67.96,47.63c0-.17-.05-.33-.12-.48-.06-.13-.16-.29-.31-.44.02,1.71-.01,5.98-.83,8.38,1.01-.15,1.37-.71,1.5-1.07.05-.15.07-.3.06-.46l-.31-5.95v.02Z"/>
              <path class="cls-6" d="m66.68,55.13c1.01-.15,1.39-.71,1.52-1.07.05-.15.07-.3.06-.46l-.31-5.95c0-.17-.05-.33-.12-.48-.06-.13-.19-.32-.33-.47"/>
            </g>
            <g>
              <path class="cls-29" d="m52.07,47.65l-.31,5.95c0,.15,0,.31.06.46.15.4.59,1.07,1.91,1.1s1.86-.61,2.1-1.03c.11-.19.15-.41.13-.63l-.71-6.02s-.44-1.2-1.68-1.18c-.83.02-1.22.53-1.39.88-.07.15-.11.31-.12.48h0Z"/>
              <path class="cls-12" d="m55.97,53.5l-.71-6.02s-.29-.79-1.06-1.07l-1.69,8.45c.29.17.68.29,1.23.3,1.27.03,1.86-.61,2.1-1.03.11-.19.15-.41.13-.63Z"/>
              <path class="cls-6" d="m54.2,46.4c.77.29,1.06,1.07,1.06,1.07l.71,6.02c.03.22-.02.44-.13.63-.25.42-.83,1.06-2.1,1.03-.55,0-.94-.14-1.23-.3l-.04-.02"/>
            </g>
            <g>
              <g>
                <g>
                  <path class="cls-24" d="m60.74,41.38c.82.1,3.18.54,4.53,2.22.09.11.15.25.17.39l1.07,6.15s.76,3.74-3.74,4.91c0,0-.93.48-2.73.62h0c-1.8-.14-2.77-.62-2.77-.62-4.5-1.18-3.74-4.91-3.74-4.91l1.07-6.15c.02-.14.08-.28.17-.39,1.35-1.67,3.67-2.11,4.49-2.22.16-.02.35-.03.51-.03h.49c.16,0,.3,0,.47.03h.01Z"/>
                  <path class="cls-13" d="m58.73,43.29s.97.23,1.35.6c0,0,.39-.6,1.25-.6h-2.6Z"/>
                  <path class="cls-3" d="m63.49,43.2s-2.18-.45-3.46.69c-1.28-1.14-3.46-.69-3.46-.69"/>
                </g>
                <g>
                  <g>
                    <path class="cls-12" d="m58.84,45.12s-.87,2.41-2.27,2.24c0,0,.91,0,1.68-.23.44-.13.9-1.03.59-2.01Z"/>
                    <path class="cls-8" d="m58.99,45.54c0-.15-.06-.29-.15-.42-.23-.31-.76-.79-1.85-.81-1.16-.02-1.62.54-1.8.85-.06.11-.09.24-.09.37v.66c0,.08,0,.16.04.23.1.31.47.96,1.85.96.89,0,1.4-.25,1.68-.49"/>
                  </g>
                  <g>
                    <path class="cls-12" d="m64.87,45.08s-.87,2.41-2.27,2.24c0,0,3.15.55,2.27-2.24Z"/>
                    <path class="cls-8" d="m61.07,45.54c0-.15.06-.3.15-.42.23-.31.76-.79,1.85-.81,1.16-.02,1.62.54,1.8.85.06.11.09.24.09.37v.66c0,.08-.01.16-.04.23-.1.31-.47.96-1.85.96-.91,0-1.42-.26-1.69-.51"/>
                  </g>
                  <g>
                    <path class="cls-12" d="m61.95,47.29s-.05.96-.99,1.14h-3.38s.06.84.93,1.03h3.11s.6-.17.83-.73c.31-.75-.5-1.44-.5-1.44Z"/>
                    <path class="cls-8" d="m61.14,45.93c0-.61-.5-1.12-1.11-1.12s-1.11.5-1.11,1.12h0l-.31,1.15c.06,0,.2,0,.15,0-.57,0-1.04.4-1.16.92-.02.09-.03.17-.03.27,0,.66.53,1.19,1.19,1.19h2.53c.66,0,1.19-.53,1.19-1.19,0-.09,0-.18-.03-.27-.12-.53-.59-.89-1.16-.92-.07,0,.19,0,.14,0l-.3-1.15h.01Z"/>
                  </g>
                </g>
              </g>
              <g>
                <path class="cls-12" d="m66.51,50.14l-1.07-6.15c-.02-.14-.08-.28-.17-.39-.17-.21-.35-.4-.55-.57.29,1.76.73,5.07.94,6.72.12.93-.13,1.89-.72,2.62-.72.88-2.03,1.88-4.38,2.35-2.62.52-5.14-1.11-6.86-2.65.35,1.1,1.27,2.39,3.59,2.99,0,0,.97.48,2.77.62,1.8-.14,2.73-.62,2.73-.62,4.5-1.18,3.74-4.91,3.74-4.91h-.02Z"/>
                <path class="cls-7" d="m53.7,52.06c.35,1.1,1.27,2.39,3.59,2.99,0,0,.97.48,2.77.62,1.8-.14,2.73-.62,2.73-.62,4.5-1.18,3.74-4.91,3.74-4.91l-1.07-6.15c-.02-.14-.08-.28-.17-.39-.17-.21-.35-.4-.55-.57"/>
              </g>
            </g>
          </g>
          <path class="cls-4" d="m58.08,47.29s-.99.32-1.2,1.48"/>
          <path class="cls-4" d="m61.98,47.29s.99.32,1.2,1.48"/>
          <path class="cls-4" d="m58.04,50.14s1.65,1.32,3.89,0"/>
          <path class="cls-5" d="m59.32,51.23s.56.37,1.4,0"/>
        </g>
      </g>
      <g class="cls-36">
        <g class="cls-36">
          <path class="cls-15" d="m70.4,23.61c.53-.9,1.25-1.6,2.16-2.11s1.93-.77,3.06-.77c.82,0,1.57.09,2.23.28.67.19,1.24.47,1.71.84s.84.83,1.1,1.38c.26.55.39,1.18.39,1.89-.06.81-.11,1.69-.14,2.62s-.07,1.85-.1,2.76c-.03.91-.05,1.78-.06,2.61-.01.83-.02,1.54-.02,2.13,0,.37.03.71.1,1,.06.3.23.45.5.45.09,0,.21-.02.35-.06-.01-.19-.02-.4-.02-.62v-.72c0-.88.01-1.9.04-3.06.02-1.16.06-2.33.11-3.52s.12-2.33.19-3.42.16-2.02.26-2.76c.5-.36,1.1-.64,1.8-.85.7-.21,1.42-.31,2.15-.31.57,0,1.15.06,1.72.17.57.11,1.1.29,1.57.55.47.26.86.59,1.16,1,.3.41.47.92.51,1.53-.04.74-.1,1.59-.19,2.53-.09.95-.2,1.94-.33,2.97-.12,1.03-.26,2.1-.4,3.2-.14,1.1-.28,2.17-.4,3.22.11.06.22.08.33.08.16,0,.31-.07.44-.2.13-.13.24-.46.33-1,.2-1.24.38-2.48.53-3.7.15-1.23.28-2.41.4-3.56s.2-2.23.27-3.27c.07-1.03.12-1.99.16-2.86.43-.34,1-.64,1.7-.9.7-.26,1.62-.38,2.77-.38.76,0,1.45.12,2.08.37.62.25,1.15.6,1.59,1.07.44.46.78,1.02,1.02,1.68.24.66.36,1.38.36,2.18,0,.26-.04.68-.11,1.25-.07.57-.16,1.25-.28,2.03-.12.78-.26,1.63-.42,2.56s-.34,1.88-.53,2.86c-.19.98-.38,1.95-.58,2.92-.2.97-.4,1.87-.6,2.71-.2.84-.39,1.6-.57,2.28s-.35,1.21-.5,1.61c-.28.73-.63,1.35-1.04,1.84-.41.5-.89.9-1.43,1.21-.54.31-1.15.54-1.83.67s-1.42.21-2.23.21c-.35,0-.73-.03-1.13-.09-.4-.06-.8-.15-1.2-.25-.39-.1-.76-.22-1.11-.36-.35-.14-.64-.28-.87-.43-.13-.24-.26-.52-.4-.85-.14-.33-.26-.68-.39-1.04-.12-.37-.23-.72-.33-1.08s-.17-.67-.22-.94c-.27.01-.45.1-.55.25-.09.15-.14.36-.14.62,0,.29.05.65.16,1.08s.23.88.39,1.37c-.67.63-1.43,1.08-2.3,1.34-.86.26-1.85.39-2.96.39-.46,0-.93-.02-1.42-.06-.49-.04-.97-.12-1.43-.24-.46-.12-.89-.27-1.29-.47-.4-.19-.74-.45-1.02-.77-.43-1.08-.9-2.37-1.39-3.87s-.97-3.22-1.44-5.15c-.47-1.93-.91-4.07-1.31-6.4-.4-2.34-.73-4.87-.98-7.6Z"/>
        </g>
        <g class="cls-36">
          <path class="cls-2" d="m70.4,23.61c.53-.9,1.25-1.6,2.16-2.11s1.93-.77,3.06-.77c.82,0,1.57.09,2.23.28.67.19,1.24.47,1.71.84s.84.83,1.1,1.38c.26.55.39,1.18.39,1.89-.06.81-.11,1.69-.14,2.62s-.07,1.85-.1,2.76c-.03.91-.05,1.78-.06,2.61-.01.83-.02,1.54-.02,2.13,0,.37.03.71.1,1,.06.3.23.45.5.45.09,0,.21-.02.35-.06-.01-.19-.02-.4-.02-.62v-.72c0-.88.01-1.9.04-3.06.02-1.16.06-2.33.11-3.52s.12-2.33.19-3.42.16-2.02.26-2.76c.5-.36,1.1-.64,1.8-.85.7-.21,1.42-.31,2.15-.31.57,0,1.15.06,1.72.17.57.11,1.1.29,1.57.55.47.26.86.59,1.16,1,.3.41.47.92.51,1.53-.04.74-.1,1.59-.19,2.53-.09.95-.2,1.94-.33,2.97-.12,1.03-.26,2.1-.4,3.2-.14,1.1-.28,2.17-.4,3.22.11.06.22.08.33.08.16,0,.31-.07.44-.2.13-.13.24-.46.33-1,.2-1.24.38-2.48.53-3.7.15-1.23.28-2.41.4-3.56s.2-2.23.27-3.27c.07-1.03.12-1.99.16-2.86.43-.34,1-.64,1.7-.9.7-.26,1.62-.38,2.77-.38.76,0,1.45.12,2.08.37.62.25,1.15.6,1.59,1.07.44.46.78,1.02,1.02,1.68.24.66.36,1.38.36,2.18,0,.26-.04.68-.11,1.25-.07.57-.16,1.25-.28,2.03-.12.78-.26,1.63-.42,2.56s-.34,1.88-.53,2.86c-.19.98-.38,1.95-.58,2.92-.2.97-.4,1.87-.6,2.71-.2.84-.39,1.6-.57,2.28s-.35,1.21-.5,1.61c-.28.73-.63,1.35-1.04,1.84-.41.5-.89.9-1.43,1.21-.54.31-1.15.54-1.83.67s-1.42.21-2.23.21c-.35,0-.73-.03-1.13-.09-.4-.06-.8-.15-1.2-.25-.39-.1-.76-.22-1.11-.36-.35-.14-.64-.28-.87-.43-.13-.24-.26-.52-.4-.85-.14-.33-.26-.68-.39-1.04-.12-.37-.23-.72-.33-1.08s-.17-.67-.22-.94c-.27.01-.45.1-.55.25-.09.15-.14.36-.14.62,0,.29.05.65.16,1.08s.23.88.39,1.37c-.67.63-1.43,1.08-2.3,1.34-.86.26-1.85.39-2.96.39-.46,0-.93-.02-1.42-.06-.49-.04-.97-.12-1.43-.24-.46-.12-.89-.27-1.29-.47-.4-.19-.74-.45-1.02-.77-.43-1.08-.9-2.37-1.39-3.87s-.97-3.22-1.44-5.15c-.47-1.93-.91-4.07-1.31-6.4-.4-2.34-.73-4.87-.98-7.6Z"/>
        </g>
        <g class="cls-36">
          <path class="cls-15" d="m110.31,47.59c-.89.4-1.95.6-3.19.6-.66,0-1.29-.08-1.9-.25-.61-.17-1.15-.42-1.61-.76-.46-.34-.83-.77-1.11-1.28s-.41-1.13-.41-1.83v-21.38c.48-.5,1.16-.94,2.05-1.35.89-.4,1.95-.6,3.19-.6.66,0,1.29.08,1.9.25.61.17,1.15.42,1.61.75.46.34.83.77,1.11,1.28.28.52.41,1.13.41,1.83v21.38c-.48.5-1.16.95-2.05,1.35Z"/>
          <path class="cls-15" d="m128,46.24c-.48.5-1.16.95-2.05,1.35-.89.4-1.95.6-3.19.6-.66,0-1.29-.08-1.9-.25-.61-.17-1.15-.42-1.61-.76s-.83-.77-1.11-1.28c-.28-.52-.41-1.13-.41-1.83v-13.33h-4.1c-.45-.76-.77-1.51-.97-2.27-.2-.75-.3-1.55-.3-2.39,0-.63.05-1.21.14-1.73.09-.52.22-.98.37-1.39.15-.41.33-.77.52-1.08.19-.31.39-.57.59-.78h18.19c.33.59.61,1.33.83,2.21.23.88.34,1.77.34,2.67,0,.84-.09,1.56-.26,2.16s-.4,1.09-.7,1.47c-.3.38-.65.66-1.06.84s-.86.27-1.35.27h-5.15c-.04.11-.05.21-.05.31,0,.12.02.22.07.3s.14.14.29.2c.15.06.35.09.62.11.26.02.61.03,1.05.03h1.21v14.55Z"/>
          <path class="cls-15" d="m154.83,46.45c-.8.7-1.64,1.17-2.52,1.4-.88.23-1.72.34-2.53.34s-1.48-.1-2.12-.29c-.64-.19-1.19-.48-1.65-.85-.46-.37-.82-.84-1.07-1.4s-.38-1.21-.38-1.96v-4.1h1.25c.27,0,.48-.02.62-.07.15-.05.25-.11.33-.2.07-.08.11-.18.12-.3s.02-.24.02-.36h-5.52c0,.12,0,.25.02.36s.05.22.11.3c.06.08.15.15.27.2s.3.07.52.07h1.34v6.85c-.49.37-.96.67-1.42.9-.45.23-.89.4-1.31.53s-.83.21-1.21.25-.76.06-1.11.06c-.77,0-1.48-.1-2.12-.29-.64-.19-1.19-.48-1.65-.85-.46-.37-.82-.84-1.07-1.4s-.38-1.21-.38-1.96v-20.59c.62-.77,1.38-1.36,2.29-1.76.9-.4,1.83-.6,2.78-.6.66,0,1.3.1,1.93.31.63.21,1.18.52,1.67.94s.88.96,1.17,1.6c.29.65.44,1.41.44,2.28v3.68h2.23c0-.39-.06-.64-.18-.76s-.29-.18-.53-.18h-.6v-5.53c.62-.77,1.38-1.36,2.29-1.76.9-.4,1.83-.6,2.78-.6.66,0,1.3.1,1.93.31.63.21,1.18.52,1.67.94.49.42.88.96,1.17,1.6.29.65.44,1.41.44,2.28v20.57Z"/>
        </g>
        <g class="cls-36">
          <path class="cls-2" d="m110.31,47.59c-.89.4-1.95.6-3.19.6-.66,0-1.29-.08-1.9-.25-.61-.17-1.15-.42-1.61-.76-.46-.34-.83-.77-1.11-1.28s-.41-1.13-.41-1.83v-21.38c.48-.5,1.16-.94,2.05-1.35.89-.4,1.95-.6,3.19-.6.66,0,1.29.08,1.9.25.61.17,1.15.42,1.61.75.46.34.83.77,1.11,1.28.28.52.41,1.13.41,1.83v21.38c-.48.5-1.16.95-2.05,1.35Z"/>
          <path class="cls-2" d="m128,46.24c-.48.5-1.16.95-2.05,1.35-.89.4-1.95.6-3.19.6-.66,0-1.29-.08-1.9-.25-.61-.17-1.15-.42-1.61-.76s-.83-.77-1.11-1.28c-.28-.52-.41-1.13-.41-1.83v-13.33h-4.1c-.45-.76-.77-1.51-.97-2.27-.2-.75-.3-1.55-.3-2.39,0-.63.05-1.21.14-1.73.09-.52.22-.98.37-1.39.15-.41.33-.77.52-1.08.19-.31.39-.57.59-.78h18.19c.33.59.61,1.33.83,2.21.23.88.34,1.77.34,2.67,0,.84-.09,1.56-.26,2.16s-.4,1.09-.7,1.47c-.3.38-.65.66-1.06.84s-.86.27-1.35.27h-5.15c-.04.11-.05.21-.05.31,0,.12.02.22.07.3s.14.14.29.2c.15.06.35.09.62.11.26.02.61.03,1.05.03h1.21v14.55Z"/>
          <path class="cls-2" d="m154.83,46.45c-.8.7-1.64,1.17-2.52,1.4-.88.23-1.72.34-2.53.34s-1.48-.1-2.12-.29c-.64-.19-1.19-.48-1.65-.85-.46-.37-.82-.84-1.07-1.4s-.38-1.21-.38-1.96v-4.1h1.25c.27,0,.48-.02.62-.07.15-.05.25-.11.33-.2.07-.08.11-.18.12-.3s.02-.24.02-.36h-5.52c0,.12,0,.25.02.36s.05.22.11.3c.06.08.15.15.27.2s.3.07.52.07h1.34v6.85c-.49.37-.96.67-1.42.9-.45.23-.89.4-1.31.53s-.83.21-1.21.25-.76.06-1.11.06c-.77,0-1.48-.1-2.12-.29-.64-.19-1.19-.48-1.65-.85-.46-.37-.82-.84-1.07-1.4s-.38-1.21-.38-1.96v-20.59c.62-.77,1.38-1.36,2.29-1.76.9-.4,1.83-.6,2.78-.6.66,0,1.3.1,1.93.31.63.21,1.18.52,1.67.94s.88.96,1.17,1.6c.29.65.44,1.41.44,2.28v3.68h2.23c0-.39-.06-.64-.18-.76s-.29-.18-.53-.18h-.6v-5.53c.62-.77,1.38-1.36,2.29-1.76.9-.4,1.83-.6,2.78-.6.66,0,1.3.1,1.93.31.63.21,1.18.52,1.67.94.49.42.88.96,1.17,1.6.29.65.44,1.41.44,2.28v20.57Z"/>
        </g>
        <g class="cls-36">
          <path class="cls-15" d="m180.24,38.36c0,1.39-.2,2.7-.6,3.92-.4,1.22-.99,2.28-1.76,3.19-.77.9-1.74,1.62-2.89,2.14-1.16.53-2.49.79-4,.79-.95,0-1.83-.15-2.63-.45s-1.52-.66-2.15-1.09c-.63-.43-1.16-.89-1.61-1.38-.45-.49-.78-.92-1-1.29-.06-.44-.1-.86-.13-1.25-.03-.39-.04-.74-.04-1.04,0-1.24.16-2.28.49-3.12.33-.84.75-1.52,1.25-2.04.5-.52,1.06-.89,1.68-1.12s1.21-.34,1.79-.34c.52,0,1.01.08,1.5.25s.93.41,1.35.73c.42.32.79.72,1.12,1.2.33.48.6,1.02.81,1.65.15,0,.28-.06.39-.17s.17-.28.17-.52c0-.21-.08-.5-.25-.89-.17-.39-.41-.78-.75-1.19-.33-.41-.75-.79-1.25-1.14-.5-.35-1.08-.6-1.75-.73v-11.92c.25-.22.55-.44.91-.66.36-.22.75-.41,1.19-.58s.89-.3,1.37-.4c.48-.1.97-.16,1.46-.16s1.05.05,1.66.15,1.2.29,1.74.57c.54.28,1,.67,1.38,1.17.38.5.56,1.14.56,1.92v13.8Z"/>
        </g>
        <g class="cls-36">
          <path class="cls-2" d="m180.24,38.36c0,1.39-.2,2.7-.6,3.92-.4,1.22-.99,2.28-1.76,3.19-.77.9-1.74,1.62-2.89,2.14-1.16.53-2.49.79-4,.79-.95,0-1.83-.15-2.63-.45s-1.52-.66-2.15-1.09c-.63-.43-1.16-.89-1.61-1.38-.45-.49-.78-.92-1-1.29-.06-.44-.1-.86-.13-1.25-.03-.39-.04-.74-.04-1.04,0-1.24.16-2.28.49-3.12.33-.84.75-1.52,1.25-2.04.5-.52,1.06-.89,1.68-1.12s1.21-.34,1.79-.34c.52,0,1.01.08,1.5.25s.93.41,1.35.73c.42.32.79.72,1.12,1.2.33.48.6,1.02.81,1.65.15,0,.28-.06.39-.17s.17-.28.17-.52c0-.21-.08-.5-.25-.89-.17-.39-.41-.78-.75-1.19-.33-.41-.75-.79-1.25-1.14-.5-.35-1.08-.6-1.75-.73v-11.92c.25-.22.55-.44.91-.66.36-.22.75-.41,1.19-.58s.89-.3,1.37-.4c.48-.1.97-.16,1.46-.16s1.05.05,1.66.15,1.2.29,1.74.57c.54.28,1,.67,1.38,1.17.38.5.56,1.14.56,1.92v13.8Z"/>
        </g>
        <g class="cls-36">
          <path class="cls-15" d="m199.07,21.12c.15.29.29.61.42.96.13.35.23.72.32,1.1s.15.76.19,1.14.07.73.07,1.07c0,1.42-.23,2.48-.7,3.17-.47.69-1.11,1.03-1.94,1.03h-7.09c-.43,0-.65.2-.65.6v.17c0,.08.01.14.04.17h8.41c.11.21.21.45.3.73.09.28.17.58.24.89s.12.63.16.95.06.63.06.92c0,.83-.07,1.57-.21,2.22-.14.66-.33,1.2-.56,1.62h-3.82c-1,0-1.82.03-2.47.09-.65.06-1.16.14-1.54.24s-.64.2-.79.32c-.15.12-.23.24-.23.36,0,.11.01.21.04.31.03.1.1.18.2.25.29-.11.59-.21.9-.29.3-.08.64-.15,1.02-.2.38-.05.79-.09,1.26-.11s1-.04,1.61-.04h4.94c.13.22.26.46.39.73s.24.58.34.93c.1.35.18.75.25,1.21.06.46.1.98.1,1.57,0,.37-.02.77-.07,1.19s-.12.84-.21,1.25-.22.81-.37,1.18c-.15.37-.33.7-.54.97h-13.17c-.69,0-1.34-.1-1.93-.3-.6-.2-1.12-.51-1.57-.93-.45-.42-.8-.95-1.06-1.59-.26-.64-.39-1.41-.39-2.31v-19.68c0-.66.65-1.15,1.95-1.45,1.3-.3,3.29-.46,5.96-.46h10.15Z"/>
        </g>
        <g class="cls-36">
          <path class="cls-2" d="m199.07,21.12c.15.29.29.61.42.96.13.35.23.72.32,1.1s.15.76.19,1.14.07.73.07,1.07c0,1.42-.23,2.48-.7,3.17-.47.69-1.11,1.03-1.94,1.03h-7.09c-.43,0-.65.2-.65.6v.17c0,.08.01.14.04.17h8.41c.11.21.21.45.3.73.09.28.17.58.24.89s.12.63.16.95.06.63.06.92c0,.83-.07,1.57-.21,2.22-.14.66-.33,1.2-.56,1.62h-3.82c-1,0-1.82.03-2.47.09-.65.06-1.16.14-1.54.24s-.64.2-.79.32c-.15.12-.23.24-.23.36,0,.11.01.21.04.31.03.1.1.18.2.25.29-.11.59-.21.9-.29.3-.08.64-.15,1.02-.2.38-.05.79-.09,1.26-.11s1-.04,1.61-.04h4.94c.13.22.26.46.39.73s.24.58.34.93c.1.35.18.75.25,1.21.06.46.1.98.1,1.57,0,.37-.02.77-.07,1.19s-.12.84-.21,1.25-.22.81-.37,1.18c-.15.37-.33.7-.54.97h-13.17c-.69,0-1.34-.1-1.93-.3-.6-.2-1.12-.51-1.57-.93-.45-.42-.8-.95-1.06-1.59-.26-.64-.39-1.41-.39-2.31v-19.68c0-.66.65-1.15,1.95-1.45,1.3-.3,3.29-.46,5.96-.46h10.15Z"/>
        </g>
        <g class="cls-36">
          <path class="cls-15" d="m217.28,38.36c0,1.39-.2,2.7-.6,3.92s-.98,2.28-1.76,3.19c-.77.9-1.74,1.62-2.89,2.14-1.15.53-2.49.79-4,.79-.95,0-1.83-.15-2.63-.45s-1.52-.66-2.15-1.09c-.63-.43-1.16-.89-1.61-1.38-.45-.49-.78-.92-1-1.29-.06-.44-.1-.86-.13-1.25-.03-.39-.04-.74-.04-1.04,0-1.24.16-2.28.49-3.12.33-.84.74-1.52,1.25-2.04.5-.52,1.06-.89,1.68-1.12s1.21-.34,1.79-.34c.52,0,1.01.08,1.5.25s.93.41,1.35.73.79.72,1.12,1.2.6,1.02.81,1.65c.15,0,.29-.06.4-.17s.17-.28.17-.52c0-.21-.08-.5-.25-.89s-.41-.78-.75-1.19c-.33-.41-.75-.79-1.25-1.14-.5-.35-1.08-.6-1.75-.73v-11.92c.25-.22.55-.44.91-.66.36-.22.75-.41,1.19-.58.43-.17.89-.3,1.37-.4s.97-.16,1.46-.16,1.05.05,1.66.15c.62.1,1.2.29,1.74.57.55.28,1.01.67,1.38,1.17.38.5.56,1.14.56,1.92v13.8Z"/>
        </g>
        <g class="cls-36">
          <path class="cls-2" d="m217.28,38.36c0,1.39-.2,2.7-.6,3.92s-.98,2.28-1.76,3.19c-.77.9-1.74,1.62-2.89,2.14-1.15.53-2.49.79-4,.79-.95,0-1.83-.15-2.63-.45s-1.52-.66-2.15-1.09c-.63-.43-1.16-.89-1.61-1.38-.45-.49-.78-.92-1-1.29-.06-.44-.1-.86-.13-1.25-.03-.39-.04-.74-.04-1.04,0-1.24.16-2.28.49-3.12.33-.84.74-1.52,1.25-2.04.5-.52,1.06-.89,1.68-1.12s1.21-.34,1.79-.34c.52,0,1.01.08,1.5.25s.93.41,1.35.73.79.72,1.12,1.2.6,1.02.81,1.65c.15,0,.29-.06.4-.17s.17-.28.17-.52c0-.21-.08-.5-.25-.89s-.41-.78-.75-1.19c-.33-.41-.75-.79-1.25-1.14-.5-.35-1.08-.6-1.75-.73v-11.92c.25-.22.55-.44.91-.66.36-.22.75-.41,1.19-.58.43-.17.89-.3,1.37-.4s.97-.16,1.46-.16,1.05.05,1.66.15c.62.1,1.2.29,1.74.57.55.28,1.01.67,1.38,1.17.38.5.56,1.14.56,1.92v13.8Z"/>
        </g>
        <g class="cls-36">
          <path class="cls-15" d="m233.31,20.75c.66,0,1.3.11,1.93.32s1.18.53,1.67.96c.49.43.88.97,1.17,1.61.29.65.44,1.41.44,2.28v11.51c0,1.78-.24,3.35-.72,4.72-.48,1.37-1.16,2.51-2.05,3.44-.88.92-1.95,1.62-3.2,2.09-1.25.47-2.64.7-4.18.7-1.63,0-3.08-.23-4.36-.7-1.28-.47-2.36-1.16-3.25-2.08-.88-.92-1.56-2.06-2.02-3.42-.46-1.37-.7-2.95-.7-4.74v-14.75c.56-.52,1.25-.98,2.08-1.37.82-.39,1.73-.58,2.73-.58.74,0,1.41.11,2.01.34.6.23,1.12.58,1.56,1.04.44.47.78,1.06,1.02,1.78s.36,1.57.36,2.54v12.06c.12.11.26.17.44.17.16,0,.29-.05.37-.14.08-.1.12-.3.12-.6v-11.51c0-.46,0-.85-.03-1.2-.02-.34-.05-.66-.09-.93s-.1-.53-.17-.77c-.07-.23-.15-.47-.25-.7.64-.63,1.38-1.14,2.21-1.51s1.79-.56,2.89-.56Z"/>
        </g>
        <g class="cls-36">
          <path class="cls-2" d="m233.31,20.75c.66,0,1.3.11,1.93.32s1.18.53,1.67.96c.49.43.88.97,1.17,1.61.29.65.44,1.41.44,2.28v11.51c0,1.78-.24,3.35-.72,4.72-.48,1.37-1.16,2.51-2.05,3.44-.88.92-1.95,1.62-3.2,2.09-1.25.47-2.64.7-4.18.7-1.63,0-3.08-.23-4.36-.7-1.28-.47-2.36-1.16-3.25-2.08-.88-.92-1.56-2.06-2.02-3.42-.46-1.37-.7-2.95-.7-4.74v-14.75c.56-.52,1.25-.98,2.08-1.37.82-.39,1.73-.58,2.73-.58.74,0,1.41.11,2.01.34.6.23,1.12.58,1.56,1.04.44.47.78,1.06,1.02,1.78s.36,1.57.36,2.54v12.06c.12.11.26.17.44.17.16,0,.29-.05.37-.14.08-.1.12-.3.12-.6v-11.51c0-.46,0-.85-.03-1.2-.02-.34-.05-.66-.09-.93s-.1-.53-.17-.77c-.07-.23-.15-.47-.25-.7.64-.63,1.38-1.14,2.21-1.51s1.79-.56,2.89-.56Z"/>
        </g>
      </g>
      <g>
        <path class="cls-17" d="m68.27,20.38c.53-.8,1.25-1.42,2.16-1.87s1.93-.68,3.06-.68c.82,0,1.56.08,2.23.25s1.24.41,1.71.74.84.74,1.1,1.22.39,1.04.39,1.68c-.06.72-.11,1.5-.14,2.32s-.07,1.64-.1,2.45-.05,1.58-.06,2.31-.02,1.36-.02,1.89c0,.33.03.63.1.89s.23.39.5.39c.09,0,.21-.02.35-.06-.01-.17-.02-.35-.02-.55v-.64c0-.78.01-1.69.04-2.72s.06-2.07.11-3.12.12-2.06.19-3.04.16-1.79.25-2.45c.5-.32,1.1-.57,1.8-.75s1.42-.28,2.15-.28c.57,0,1.15.05,1.72.15s1.1.26,1.56.49.86.52,1.16.89.47.82.51,1.36c-.04.66-.1,1.41-.19,2.25s-.2,1.72-.33,2.63-.25,1.86-.4,2.83-.28,1.92-.4,2.85c.11.05.22.07.33.07.16,0,.31-.06.44-.17s.24-.41.33-.89c.2-1.1.38-2.2.53-3.28s.28-2.14.4-3.16.2-1.98.27-2.9.12-1.76.16-2.53c.43-.31,1-.57,1.7-.8s1.62-.34,2.77-.34c.76,0,1.45.11,2.07.33s1.15.54,1.59.94.78.91,1.02,1.49.36,1.23.36,1.94c0,.23-.04.6-.11,1.11s-.16,1.11-.28,1.8-.26,1.45-.42,2.27-.34,1.66-.53,2.53-.38,1.73-.58,2.59c-.2.86-.4,1.66-.6,2.4s-.39,4.94-.57,5.54-.35,1.08-.5,1.43c-.28.65-.63,1.19-1.04,1.63s-.89.8-1.43,1.07-1.15.47-1.83.6-1.42.18-2.22.18c-.35,0-.73-.03-1.13-.08s-.8-.13-1.2-.22-.76-.2-1.11-.32-.64-.25-.87-.39c-.13-.21-.26-.46-.4-.75s-.26-.6-.39-.93-.23-.64-.33-.95-.17-.59-.22-.83c-.27,0-.45.09-.54.22s-.14.32-.14.55c0,.26.05.57.16.95s.23.78.39,1.21c-.67.56-1.43.96-2.29,1.19s-1.85.35-2.96.35c-.46,0-.93-.02-1.42-.06s-.97-.11-1.43-.21-.89-.24-1.29-.41-.74-.4-1.02-.68c-.43-.95-.9-2.1-1.39-3.43s-2.35-11.69-2.75-13.77-.73-4.32-.98-6.74l.02.02Z"/>
        <path class="cls-17" d="m108.15,45.17c-.88.35-1.95.53-3.19.53-.66,0-1.29-.07-1.9-.22s-1.15-.37-1.61-.67-.83-.68-1.11-1.14-.41-1-.41-1.62v-22.47c.48-.44,1.16-.84,2.05-1.19s1.95-.53,3.19-.53c.66,0,1.29.07,1.9.22s1.15.37,1.61.67.83.68,1.11,1.14.41,1,.41,1.62v22.47c-.48.44-1.16.84-2.05,1.19Z"/>
        <path class="cls-17" d="m125.97,43.98c-.48.44-1.16.84-2.05,1.19s-1.95.53-3.19.53c-.66,0-1.29-.07-1.9-.22s-1.15-.37-1.61-.67-.83-.68-1.11-1.14-.41-1-.41-1.62v-15.34h-4.1c-.45-.67-.77-1.34-.97-2.01s-.3-1.37-.3-2.12c0-.56.05-1.07.14-1.53s.22-.87.37-1.23.33-.68.52-.95.39-.5.59-.69h18.18c.33.53.61,1.18.83,1.96s.34,1.57.34,2.37c0,.75-.08,1.39-.25,1.92s-.4.97-.7,1.3-.65.58-1.06.74-.86.24-1.35.24h-5.15c-.04.1-.05.19-.05.28,0,.11.02.2.07.27s.14.13.29.17.35.08.62.1.61.03,1.05.03h1.21v16.42h0Z"/>
        <path class="cls-17" d="m152.92,44.14c-.8.62-1.63,1.04-2.51,1.24s-1.72.3-2.53.3-1.48-.09-2.12-.26-1.19-.42-1.65-.75-.82-.74-1.07-1.24-.38-4.58-.38-5.24v-3.63h1.25c.27,0,.48-.02.62-.06s.25-.1.33-.17.11-.16.12-.27.02-.21.02-.32h-5.52c0,.11,0,.22.02.32s.05.19.11.27.15.13.27.17.3.06.52.06h1.34v9.58c-.49.33-.96.6-1.42.8s-.89.36-1.31.47-.83.18-1.21.22-.76.06-1.11.06c-.77,0-1.48-.09-2.12-.26s-1.19-.42-1.65-.75-.82-.74-1.07-1.24-.38-4.58-.38-5.24v-18.25c.62-.68,1.38-1.2,2.29-1.56s1.83-.53,2.78-.53c.66,0,1.3.09,1.92.28s1.18.46,1.67.83.88.85,1.17,1.42.44,1.25.44,2.02v3.27h2.23c0-.34-.06-.57-.18-.67s-.29-.16-.53-.16h-.6v-4.9c.62-.68,1.38-1.2,2.29-1.56s1.83-.53,2.78-.53c.66,0,1.3.09,1.92.28s1.18.46,1.67.83.88.85,1.17,1.42.44,1.25.44,2.02v21.74h0Z"/>
        <path class="cls-17" d="m178.03,37.39c0,1.24-.2,2.39-.6,3.48s-.98,2.02-1.76,2.83-1.74,1.43-2.89,1.9-2.49.7-4,.7c-.95,0-1.83-.13-2.63-.39s-1.52-.58-2.14-.96-1.16-.79-1.61-1.22-.78-.82-1-1.15c-.06-.39-.1-.76-.13-1.11s-.04-.66-.04-.93c0-1.1.16-2.02.49-2.77s.74-1.35,1.25-1.81,1.06-.79,1.68-.99,1.21-.3,1.78-.3c.52,0,1.01.07,1.49.22s.93.36,1.34.65.79.64,1.12,1.06.6.91.81,1.46c.15,0,.28-.05.4-.15s.17-.25.17-.46c0-.18-.08-.45-.25-.79s-.41-.69-.75-1.05-.75-.7-1.25-1.01-1.08-.53-1.75-.65v-14.49c.25-.2.55-.39.91-.59s.75-.37,1.19-.51.89-.27,1.37-.36.97-.14,1.46-.14,1.05.04,1.66.13,1.2.25,1.74.5,1,.6,1.38,1.04.56,1.01.56,1.71v16.16h0Z"/>
        <path class="cls-17" d="m215.12,37.39c0,1.24-.2,2.39-.6,3.48s-.98,2.02-1.76,2.83-1.74,1.43-2.89,1.9-2.49.7-4,.7c-.95,0-1.83-.13-2.63-.39s-1.52-.58-2.14-.96-1.16-.79-1.61-1.22-.78-.82-1-1.15c-.06-.39-.1-.76-.13-1.11s-.04-.66-.04-.93c0-1.1.16-2.02.49-2.77s.74-1.35,1.25-1.81,1.06-.79,1.68-.99,1.21-.3,1.78-.3c.52,0,1.01.07,1.49.22s.93.36,1.34.65.79.64,1.12,1.06.6.91.81,1.46c.15,0,.28-.05.4-.15s.17-.25.17-.46c0-.18-.08-.45-.25-.79s-.41-.69-.75-1.05-.75-.7-1.25-1.01-1.08-.53-1.75-.65v-14.49c.25-.2.55-.39.91-.59s.75-.37,1.19-.51.89-.27,1.37-.36.97-.14,1.46-.14,1.05.04,1.66.13,1.2.25,1.74.5,1,.6,1.38,1.04.56,1.01.56,1.71v16.16h0Z"/>
        <path class="cls-34" d="m196.84,18.18c.15.3.29.63.42.99s.23.74.32,1.13.15.78.19,1.17.07.76.07,1.1c0,1.46-.23,2.55-.7,3.26s-1.11,1.07-1.93,1.07h-7.08c-.43,0-.65.21-.65.62v.17c0,.09,0,.14.04.17h8.4c.11.21.21.47.3.76s.17.6.24.92.12.65.16.98.06.65.06.95c0,.85-.07,1.62-.21,2.29s-.33,1.23-.56,1.67h-3.81c-1,0-1.82.03-2.47.1s-1.16.15-1.54.25-.64.21-.79.33-.23.25-.23.37c0,.11,0,.22.04.32s.1.18.2.26c.29-.11.59-.21.9-.3s.64-.15,1.02-.2.79-.09,1.26-.12,1-.04,1.61-.04h4.94c.13.23.26.48.39.76s.24.6.34.96.18.78.25,1.25.1,1.01.1,1.62c0,.38-.02.79-.07,1.23s-.12.86-.21,1.29-.22.83-.37,1.21-.33.72-.54,1h-13.17c-.69,0-1.34-.1-1.93-.31s-1.12-.53-1.56-.96-.8-.98-1.05-1.64-.39-1.45-.39-2.38v-20.27c0-.68.65-1.18,1.95-1.49s3.29-.47,5.96-.47h10.14l-.04-.02Z"/>
        <path class="cls-33" d="m231.06,17.85c.66,0,1.3.11,1.92.32s1.18.54,1.67.97.88.97,1.17,1.63.44,1.42.44,2.29v11.6c0,1.79-.24,3.38-.72,4.76s-1.16,2.53-2.05,3.46-1.95,1.63-3.2,2.11-2.64.71-4.17.71c-1.63,0-3.08-.24-4.36-.71s-2.36-1.17-3.24-2.1-1.56-2.08-2.02-3.45-.69-2.97-.69-4.78v-14.87c.56-.53,1.25-.99,2.07-1.38s1.73-.58,2.72-.58c.74,0,1.41.11,2.01.34s1.12.58,1.56,1.05.78,1.07,1.02,1.79.36,1.58.36,2.57v12.16c.12.11.26.17.44.17.16,0,.29-.05.37-.15s.12-.3.12-.6v-11.6c0-.46,0-.86-.03-1.21s-.05-.66-.09-.94-.1-.54-.17-.77-.15-.47-.25-.71c.64-.64,1.38-1.15,2.21-1.52s1.79-.56,2.89-.56h.02Z"/>
      </g>
      <g class="cls-36">
        <text class="cls-35" transform="translate(91.94 63.49)"><tspan x="0" y="0">welcome jeju island</tspan></text>
      </g>
    </g>
  </g>
</svg>