<?xml version="1.0" encoding="UTF-8"?>
<svg id="_레이어_2" data-name="레이어 2" xmlns="http://www.w3.org/2000/svg" xmlns:xlink="http://www.w3.org/1999/xlink" viewBox="0 0 253.78 69.66">
  <defs>
    <style>
      .cls-1, .cls-2, .cls-3, .cls-4, .cls-5 {
        stroke-linecap: round;
      }

      .cls-1, .cls-6, .cls-7, .cls-8, .cls-3, .cls-9, .cls-4, .cls-5, .cls-10, .cls-11, .cls-12, .cls-13, .cls-14, .cls-15, .cls-16, .cls-17, .cls-18, .cls-19, .cls-20, .cls-21, .cls-22, .cls-23, .cls-24 {
        stroke-miterlimit: 10;
        stroke-width: .5px;
      }

      .cls-1, .cls-8, .cls-4, .cls-11, .cls-12, .cls-16, .cls-17, .cls-19, .cls-20, .cls-21, .cls-24 {
        stroke: #231815;
      }

      .cls-1, .cls-17 {
        fill: #a3c753;
      }

      .cls-2 {
        stroke: #79bc45;
        stroke-linejoin: round;
      }

      .cls-2, .cls-3, .cls-4, .cls-5, .cls-22, .cls-23, .cls-24 {
        fill: none;
      }

      .cls-2, .cls-25, .cls-26, .cls-27, .cls-28, .cls-29, .cls-30 {
        stroke-width: 0px;
      }

      .cls-6 {
        fill: #7da43f;
      }

      .cls-6, .cls-15, .cls-18, .cls-22 {
        stroke: #221714;
      }

      .cls-7 {
        stroke: #050101;
      }

      .cls-7, .cls-31 {
        fill: #fff;
      }

      .cls-8 {
        fill: #7fae6a;
      }

      .cls-31 {
        font-family: Yeongdeok-Sea, 'Yeongdeok Sea';
        font-size: 15.94px;
      }

      .cls-3 {
        stroke: #040000;
      }

      .cls-9 {
        fill: #231815;
        filter: url(#drop-shadow-1);
        font-family: Modak, Modak;
        font-size: 37px;
        stroke: #fff;
      }

      .cls-5, .cls-13, .cls-23 {
        stroke: #070001;
      }

      .cls-10 {
        fill: #89684f;
      }

      .cls-10, .cls-14 {
        stroke: #070102;
      }

      .cls-11, .cls-27 {
        fill: #85929c;
      }

      .cls-12 {
        fill: #c2ccd3;
      }

      .cls-13 {
        fill: #c1cbd3;
      }

      .cls-14 {
        fill: #ba9583;
      }

      .cls-15 {
        fill: #598a35;
      }

      .cls-16 {
        fill: #c7ccd4;
      }

      .cls-18 {
        fill: #c5cfd6;
      }

      .cls-19 {
        fill: #76b072;
      }

      .cls-20 {
        fill: #844b48;
      }

      .cls-21 {
        fill: #79bc45;
      }

      .cls-32 {
        letter-spacing: .02em;
      }

      .cls-33 {
        letter-spacing: 0em;
      }

      .cls-25 {
        fill: #f4c928;
      }

      .cls-26 {
        fill: #7a8a95;
      }

      .cls-28 {
        fill: #72828b;
      }

      .cls-29 {
        fill: #7e858b;
      }

      .cls-30 {
        fill: #f2c029;
      }

      .cls-34 {
        letter-spacing: 0em;
      }
    </style>
    <filter id="drop-shadow-1" filterUnits="userSpaceOnUse">
      <feOffset dx="2.83" dy="2.83"/>
      <feGaussianBlur result="blur" stdDeviation="0"/>
      <feFlood flood-color="#edb780" flood-opacity="1"/>
      <feComposite in2="blur" operator="in"/>
      <feComposite in="SourceGraphic"/>
    </filter>
  </defs>
  <g id="_레이어_1-2" data-name="레이어 1">
    <g>
      <g>
        <g>
          <g>
            <g>
              <path class="cls-14" d="m36.58,21.62c.24-.97.52-1.92.84-2.8.99.04,2.05,0,2.97-.08-.13.84-.27,1.79-.39,2.8-.92.05-2.27.1-3.41.09Z"/>
              <path class="cls-14" d="m37.42,18.82c.43-1.18.94-2.22,1.53-2.99,2.88-3.68,1.96,0,1.96,0,0,0-.25,1.2-.52,2.9-.91.08-1.98.13-2.97.08Z"/>
              <path class="cls-14" d="m39.69,25.51c-.05,2.4.22,4.41,1.22,4.82l-5.64-.58s.14-1.8.52-4.15c1.12.08,2.75,0,3.9-.1Z"/>
              <path class="cls-14" d="m40,21.53c-.16,1.31-.28,2.7-.31,3.97-1.15.09-2.78.18-3.9.1.2-1.23.46-2.62.79-3.98,1.15.01,2.5-.04,3.41-.09Z"/>
            </g>
            <path class="cls-17" d="m42.35,11s7.94,5.36,9.9,10.53c1.91,5.05,6.5-11.55-8.74-10.63-.37.02-.76.06-1.16.1Z"/>
            <path class="cls-15" d="m42.35,11s11.1-7.77,14.51,2.38c.06.17-.15.31-.3.2-1.13-.85-6.1-3.8-14.21-2.59Z"/>
            <path class="cls-6" d="m42.02,11.02s0-6.6,1.94-8.36c1.81-1.64,5.19-3.48,9.95-1.64.15.06.14.28-.02.31-1.66.42-6.87,2.28-9.12,9.54l-2.74.15Z"/>
            <path class="cls-17" d="m43.51,10.9s-1.48-12.79-14.22-9.01c-.1.03-.09.16,0,.2,8.13,3.55,8.79,6.07,12.15,9.2l2.06-.39Z"/>
            <path class="cls-3" d="m52.26,16.52s-1.33.44-1.59,2.22"/>
            <path class="cls-3" d="m50.68,14.51s-1.33.44-1.59,2.22"/>
            <path class="cls-3" d="m48.9,12.69s-1.33.44-1.59,2.22"/>
            <path class="cls-3" d="m52.26,9.16s-1.38.38-1.23,1.86"/>
            <path class="cls-3" d="m54.57,10.6s-.79.27-.79,1.38"/>
            <path class="cls-3" d="m49.49,9.33s-.79.27-.79,1.38"/>
            <path class="cls-1" d="m50.44,2.89s-1.79-.35-2.06-1.04"/>
            <path class="cls-1" d="m48.35,4.61s-1.79-.35-2.06-1.04"/>
            <path class="cls-1" d="m46.28,6.76s-1.79-.35-2.06-1.04"/>
            <path class="cls-1" d="m32.74,3.57s.41-.73,1.74-.93"/>
            <path class="cls-1" d="m34.95,4.77s.41-.73,1.74-.93"/>
            <path class="cls-1" d="m39.31,8.71s.41-.73,1.74-.93"/>
            <path class="cls-1" d="m37.13,6.57s.41-.73,1.74-.93"/>
            <path class="cls-15" d="m42.02,11.02s-6.56-8.66-13.91-2.25c-.07.06-.04.19.06.2,3.17.2,8.28.4,12.4,2.05h1.46Z"/>
            <path class="cls-17" d="m42.35,10.72s-11.96-2.53-12.77,6.24c-.01.11.13.21.22.14,2.48-1.96,5.58-4.83,11.64-5.81l.9-.57Z"/>
            <circle class="cls-10" cx="43.53" cy="12.27" r="2.47"/>
            <circle class="cls-20" cx="40.18" cy="13.07" r="2.47"/>
            <path class="cls-4" d="m34.66,7.97s-.47.65-.33,1.47"/>
            <path class="cls-4" d="m32.14,7.58s-.47.65-.33,1.47"/>
            <path class="cls-4" d="m37.6,8.43s-.47.65-.33,1.47"/>
            <path class="cls-4" d="m36.19,11.54s-.14.54.17,1"/>
            <path class="cls-4" d="m34.41,12.38s-.14.54.17,1"/>
            <path class="cls-4" d="m32.41,13.7s-.14.54.17,1"/>
          </g>
          <g>
            <g>
              <path class="cls-14" d="m30.69,23.8c-.2-.82-.44-1.62-.71-2.37-.83.04-1.74,0-2.51-.07.11.71.23,1.52.33,2.36.77.04,1.92.09,2.89.08Z"/>
              <path class="cls-14" d="m29.98,21.43c-.36-1-.79-1.88-1.3-2.53-2.43-3.11-1.65,0-1.65,0,0,0,.21,1.01.44,2.46.77.06,1.68.11,2.51.07Z"/>
              <path class="cls-14" d="m28.06,27.09c.05,2.03-.19,3.73-1.03,4.08l4.77-.49s-.12-1.52-.44-3.51c-.95.07-2.33,0-3.3-.08Z"/>
              <path class="cls-14" d="m27.8,23.73c.13,1.11.24,2.28.26,3.36.97.08,2.35.15,3.3.08-.17-1.04-.39-2.21-.67-3.37-.97.01-2.11-.04-2.89-.08Z"/>
            </g>
            <path class="cls-17" d="m25.81,14.82s-6.71,4.53-8.37,8.91c-1.61,4.27-5.5-9.76,7.39-8.99.32.02.64.05.98.08Z"/>
            <path class="cls-15" d="m25.81,14.82s-9.39-6.57-12.27,2.02c-.05.15.13.27.25.17.95-.72,5.16-3.21,12.02-2.19Z"/>
            <path class="cls-6" d="m26.09,14.84s0-5.58-1.64-7.07c-1.53-1.38-4.39-2.94-8.41-1.39-.13.05-.12.23.01.27,1.4.35,5.81,1.93,7.72,8.06l2.32.13Z"/>
            <path class="cls-17" d="m24.84,14.74s1.25-10.81,12.02-7.62c.08.02.07.14,0,.17-6.87,3-7.44,5.13-10.27,7.78l-1.74-.33Z"/>
            <path class="cls-3" d="m17.43,19.49s1.13.38,1.34,1.88"/>
            <path class="cls-3" d="m18.77,17.79s1.13.38,1.34,1.88"/>
            <path class="cls-3" d="m20.27,16.25s1.13.38,1.34,1.88"/>
            <path class="cls-3" d="m17.43,13.26s1.17.32,1.04,1.57"/>
            <path class="cls-3" d="m15.48,14.48s.67.23.67,1.16"/>
            <path class="cls-3" d="m19.78,13.41s.67.23.67,1.16"/>
            <path class="cls-1" d="m18.97,7.96s1.51-.29,1.75-.88"/>
            <path class="cls-1" d="m20.74,9.42s1.51-.29,1.75-.88"/>
            <path class="cls-1" d="m22.49,11.23s1.51-.29,1.75-.88"/>
            <path class="cls-1" d="m33.94,8.54s-.35-.62-1.47-.79"/>
            <path class="cls-1" d="m32.07,9.55s-.35-.62-1.47-.79"/>
            <path class="cls-1" d="m28.38,12.88s-.35-.62-1.47-.79"/>
            <path class="cls-1" d="m30.22,11.07s-.35-.62-1.47-.79"/>
            <path class="cls-15" d="m26.09,14.84s5.55-7.32,11.77-1.9c.06.05.03.16-.05.17-2.68.17-7,.33-10.48,1.74h-1.23Z"/>
            <path class="cls-17" d="m25.81,14.58s10.12-2.14,10.79,5.28c0,.1-.11.18-.19.12-2.09-1.65-4.72-4.09-9.85-4.92l-.76-.48Z"/>
            <circle class="cls-10" cx="24.82" cy="15.89" r="2.09"/>
            <circle class="cls-20" cx="27.65" cy="16.57" r="2.09"/>
            <path class="cls-4" d="m32.31,12.26s.39.55.28,1.24"/>
            <path class="cls-4" d="m34.45,11.93s.39.55.28,1.24"/>
            <path class="cls-4" d="m29.83,12.65s.39.55.28,1.24"/>
            <path class="cls-4" d="m31.02,15.28s.12.46-.14.84"/>
            <path class="cls-4" d="m32.52,15.99s.12.46-.14.84"/>
            <path class="cls-4" d="m34.22,17.1s.12.46-.14.84"/>
          </g>
          <g>
            <path class="cls-7" d="m21.59,33.42s1.43,1.95.65,3.37c-.78,1.43,5.71-2.59,5.97-3.44.26-.84,2.21,4.35,2.59,6.94.36,2.41,4.26-7.92,5.36-8.05,1.1-.13,2.95,5.19,2.95,5.19l1.56-2.02,1.64,1.36c.53.44,1.31.37,1.76-.16,1.12-1.33,3.13-3.71,4.13-4.89,2.1-2.49,8.04,8.56,8.04,8.56l1.87-2.31c-3.34-3.23-8.54-8.23-11.17-10.71-4.07-3.84-6.23,1.82-10.12,0-3.89-1.82-3.42,1.22-5.97,0-1.26-.6-5.23-2.16-7.27,0l-3.29,4.36-1,1.32.87,1.25,1.43-.78Z"/>
            <path class="cls-19" d="m61.2,40.98s-1.28-1.23-3.11-3l-1.87,2.31s-5.94-11.05-8.04-8.56c-1,1.18-3.01,3.56-4.13,4.89-.44.53-1.23.6-1.76.16l-1.64-1.36-1.56,2.02s-1.85-5.32-2.95-5.19c-1.1.13-4.99,10.45-5.36,8.05-.39-2.6-2.34-7.79-2.59-6.94-.26.84-6.75,4.86-5.97,3.44.78-1.43-.65-3.37-.65-3.37l-1.43.78-.87-1.25-.08.11-6.01,7.96s-2.34,1.56-3.63,2.08c-1.3.52-9.08,9.37-9.08,9.37l9.34,1.53s9.86-1.56,11.94,0c2.08,1.56,32.69,0,32.69,0l17.37-.31-10.62-12.71Z"/>
          </g>
        </g>
        <g>
          <g>
            <path class="cls-21" d="m27.99,47.69c-3.11.78-4.92,2.26-5.97,3.79,0,0,0,0,0,0l.94,3.39-.93-3.38s0,0-.01,0c-1.56,2.3-1.42,4.73-1.38,5.11h.02c.39-.29,7.24-5.46,7.31-5.52,0,0,0,0,0,0l.04-3.39s0,0,0,0Z"/>
            <path class="cls-21" d="m30.37,49.27h0l2.63-1.99s.01-.04.02-.06c.01-.05-.14-.05-.19-.05-1.93.02-3.45.17-4.82.51,0,0,0,0,0,0l-.04,3.39s0,0,.01,0l2.4-1.81Z"/>
            <path class="cls-21" d="m30.38,49.27s0,0,0,0l-2.41,1.82h0l-7.31,5.52v.06c4.03,1.37,6.9-.27,8.85-2.56,0,0,0,0,0-.01l-4.06-1.11,4.06,1.11s0,0,0,0c1.19-1.39,2.04-3.01,2.61-4.34,0,0,0,0,0,0l-1.74-.48Z"/>
            <path class="cls-21" d="m32.13,49.74c.47-1.1.75-2,.86-2.4,0-.02-.02-.04-.04-.02-.37.28-2.44,1.84-2.57,1.94,0,0,0,0,0,0l1.74.47s0,0,0,0Z"/>
            <line class="cls-2" x1="28" y1="47.68" x2="27.97" y2="51.09"/>
            <line class="cls-2" x1="32.13" y1="49.75" x2="30.37" y2="49.27"/>
            <line class="cls-2" x1="29.52" y1="54.1" x2="25.45" y2="52.99"/>
            <line class="cls-2" x1="22.02" y1="51.48" x2="22.96" y2="54.87"/>
          </g>
          <g>
            <path class="cls-21" d="m22.36,44.97c-2.57,1.93-3.66,3.99-4.03,5.82,0,0,0,0,0,0l2.18,2.76-2.17-2.75s-.01,0-.01,0c-.54,2.73.54,4.91.72,5.25h.02c.25-.43,4.54-7.86,4.59-7.94,0,0,0,0,0,0l-1.29-3.14s0,0-.01,0Z"/>
            <path class="cls-21" d="m25.17,45.5h0l1.65-2.86s0-.05,0-.06c0-.06-.15,0-.2.03-1.77.76-3.11,1.5-4.24,2.35,0,0,0,0,0,0l1.28,3.13s0,0,.01,0l1.5-2.6Z"/>
            <path class="cls-21" d="m25.17,45.5s0,0,0,0l-1.51,2.61h0l-4.59,7.93.03.05c4.23-.3,6.24-2.93,7.15-5.8,0,0,0,0,0,0l-4.17.56,4.18-.56s0,0,0,0c.55-1.74.7-3.57.71-5.01,0,0,0,0,0,0l-1.79.24Z"/>
            <path class="cls-21" d="m26.97,45.26c0-1.2-.09-2.13-.14-2.54,0-.02-.03-.03-.04,0-.23.4-1.53,2.65-1.61,2.79,0,0,0,0,0,0l1.78-.24s0,0,0,0Z"/>
            <line class="cls-2" x1="22.37" y1="44.97" x2="23.66" y2="48.12"/>
            <line class="cls-2" x1="26.97" y1="45.26" x2="25.17" y2="45.5"/>
            <line class="cls-2" x1="26.26" y1="50.29" x2="22.08" y2="50.85"/>
            <line class="cls-2" x1="18.33" y1="50.79" x2="20.51" y2="53.55"/>
          </g>
          <g>
            <g>
              <g>
                <path class="cls-25" d="m15.4,47.84c-.45-.06-.92-.1-1.39-.1-5.26,0-9.53,3.61-9.53,8.05s4.27,8.05,9.53,8.05c1.31,0,2.56-.22,3.7-.63,0,0,0,0,0,0,0,0,0,0,0,0,3.43-6.35.39-12.05-2.31-15.38Z"/>
                <path class="cls-30" d="m23.54,55.8c0-4.05-3.53-7.39-8.13-7.96,0,0,0,0,0,0,2.69,3.33,5.74,9.03,2.31,15.38,0,0,0,0,0,0,3.42-1.22,5.82-4.08,5.82-7.42Z"/>
                <ellipse class="cls-24" cx="14.01" cy="55.8" rx="9.53" ry="8.05"/>
              </g>
              <ellipse class="cls-8" cx="14.01" cy="49" rx=".72" ry=".37"/>
            </g>
            <g>
              <g>
                <g>
                  <path class="cls-30" d="m13.89,57.87c.47,2.4.51,7.17-5.23,10.52.17.01.35.02.53.02,3.94,0,7.13-2.7,7.13-6.02,0-1.8-.94-3.42-2.43-4.52Z"/>
                  <path class="cls-25" d="m13.89,57.87c-1.26-.93-2.9-1.5-4.7-1.5-3.94,0-7.13,2.7-7.13,6.02s2.91,5.77,6.6,6c5.74-3.36,5.7-8.12,5.23-10.52Z"/>
                </g>
                <ellipse class="cls-24" cx="9.19" cy="62.39" rx="7.13" ry="6.02"/>
              </g>
              <ellipse class="cls-8" cx="9.19" cy="57.6" rx=".54" ry=".28"/>
            </g>
          </g>
        </g>
        <g>
          <path class="cls-13" d="m53.21,63.59v2.49s.14,1.79,1.04,2.42,9.76,1.68,13.04,0c0,0,.83-.58,1.18-2.6,0,0,.17-2.68-.31-3.51s-1.97-11.54-1.97-11.54l-11.87.44-1.11,12.3Z"/>
          <rect class="cls-28" x="54.31" y="51.82" width="11.83" height="3.56"/>
          <g>
            <path class="cls-28" d="m67.98,61.85c-.81.91-2.03,1.79-3.77,2.06-2.91.44-8.36-.17-10.98-.52l-.02.2v2.49s.14,1.79,1.04,2.42c.9.63,9.76,1.68,13.04,0,0,0,.83-.58,1.18-2.6,0,0,.17-2.68-.31-3.51-.05-.08-.11-.27-.18-.54Z"/>
            <path class="cls-23" d="m53.22,63.39l-.02.2v2.49s.14,1.79,1.04,2.42c.9.63,9.76,1.68,13.04,0,0,0,.83-.58,1.18-2.6,0,0,.17-2.68-.31-3.51-.05-.08-.11-.27-.18-.54"/>
          </g>
          <g>
            <path class="cls-12" d="m58.52,63.94h-4.26c-1.04-.04-1.87-.71-1.87-1.54l.59-8.33c.03-.38.29-.71.66-.81.17-.05.38-.08.63-.08.16,0,.29.01.41.04.42.08.71.46.71.89v2.43h3.46s1.26-.02,1.48.78c0,0,.09.59-.36.61,0,0,.66.09.66.78s-.55.84-.55.84c0,0,.55.18.55.89s-.61.7-.61.7c0,0,.67.06.67.81s-.72.75-.72.75c0,0,.18.23.09.57s-.45.48-.45.48c0,0-.23.18-1.09.18Z"/>
            <g>
              <path class="cls-28" d="m60.7,61.96c0-.75-.67-.81-.67-.81,0,0,.61,0,.61-.7s-.55-.89-.55-.89c0,0,.55-.15.55-.84s-.66-.78-.66-.78c.45-.02.36-.61.36-.61-.22-.8-1.48-.78-1.48-.78h-3.46v-2.43c0-.43-.29-.81-.71-.89-.12-.02-.25-.04-.41-.04s-.29.01-.41.03l.8,3.52c.02.11.12.18.23.18h3.99c.15,0,.29.1.34.24.31.91,1.25,4.19-.73,6.32-.1.11-.25.17-.4.17h-4.89c.3.17.67.28,1.06.29h0s1.13,0,1.13,0h3.12c.86,0,1.09-.18,1.09-.18,0,0,.36-.15.45-.48.09-.33-.09-.57-.09-.57,0,0,.72,0,.72-.75Z"/>
              <path class="cls-24" d="m53.21,63.64c.3.17.67.28,1.06.29h0s1.13,0,1.13,0h3.12c.86,0,1.09-.18,1.09-.18,0,0,.36-.15.45-.48.09-.33-.09-.57-.09-.57,0,0,.72,0,.72-.75s-.67-.81-.67-.81c0,0,.61,0,.61-.7s-.55-.89-.55-.89c0,0,.55-.15.55-.84s-.66-.78-.66-.78c.45-.02.36-.61.36-.61-.22-.8-1.48-.78-1.48-.78h-3.46v-2.43c0-.43-.29-.81-.71-.89-.12-.02-.25-.04-.41-.04s-.29.01-.41.03"/>
            </g>
            <line class="cls-4" x1="57.39" y1="57.94" x2="59.99" y2="57.94"/>
            <line class="cls-4" x1="57.39" y1="59.56" x2="60.09" y2="59.56"/>
            <line class="cls-4" x1="57.39" y1="61.15" x2="60.03" y2="61.15"/>
            <line class="cls-4" x1="57.39" y1="62.71" x2="59.96" y2="62.71"/>
          </g>
          <g>
            <path class="cls-13" d="m66.6,62.71c.8.05,1.8-.51,1.8-1.55s-.73-8.11-.73-8.11c-.03-.38-.29-.71-.66-.81-.17-.05,0-.05-.25-.05-.16,0-.29.01-.41.04-.42.08-.71.46-.71.89l-.03,2.69h-3.12s-1.17-.05-1.45.52c0,0-.15.73.3.75,0,0-.66.09-.66.78,0,.7.61.7.61.7,0,0-.61.1-.61.8,0,.7.61.7.61.7,0,0-.61,0-.61.76,0,.75.72.75.72.75,0,0-.18.37-.09.7.02.07.05.13.08.18.13.2.38.3.62.29.2,0,.52-.02.98-.02.86,0,2.27-.01,2.27-.01h1.34Z"/>
            <line class="cls-24" x1="63.71" y1="57.08" x2="61.35" y2="57.08"/>
            <line class="cls-24" x1="63.71" y1="58.56" x2="61.3" y2="58.56"/>
            <line class="cls-24" x1="63.71" y1="60.06" x2="61.3" y2="60.07"/>
            <g>
              <path class="cls-28" d="m67.68,53.05c-.01-.19-.09-.36-.2-.5-.16,1.65-.56,6-.6,6.82-.07,1.54-1.53,1.44-1.53,1.44h-4.66s0,.02,0,.03c0,.75.72.75.72.75,0,0-.18.37-.09.7.02.07.05.13.08.18.13.2.38.3.62.29.2,0,.52-.02.98-.02.86,0,2.27-.01,2.27-.01h1.34c.8.05,1.8-.51,1.8-1.55s-.73-8.11-.73-8.11Z"/>
              <path class="cls-24" d="m60.69,60.8s0,.02,0,.03c0,.75.72.75.72.75,0,0-.18.37-.09.7.02.07.05.13.08.18.13.2.38.3.62.29.2,0,.52-.02.98-.02.86,0,2.27-.01,2.27-.01h1.34c.8.05,1.8-.51,1.8-1.55s-.73-8.11-.73-8.11c-.01-.19-.09-.36-.2-.5"/>
            </g>
            <line class="cls-24" x1="63.71" y1="61.58" x2="61.41" y2="61.58"/>
          </g>
          <path class="cls-11" d="m60.01,39.21c-6.49.3-7.07,5.25-7.08,5.27.08.26.19.47.32.61.27.29.52.9.92,1.04,1.43.49,3.7-.22,5.84-.22s4.43.63,5.88.13c.4-.14.7-.66.97-.95.12-.13.22-.35.29-.61,0-.04-.66-5.57-7.14-5.27Z"/>
          <g>
            <path class="cls-18" d="m61.42,35.2c-.43-.24-.9-.36-1.45-.36-1.54,0-2.78,1.08-2.78,2.41,0,.23.04.46.11.67.79-.21,1.68-.33,2.66-.33.21,0,.41,0,.61.02.45-.86.7-1.71.85-2.4"/>
            <path class="cls-26" d="m61.72,35.39s-.07-.05-.11-.07c0,0,0,0,0,0-.04-.02-.07-.05-.11-.07,0,0-.02,0-.02-.01l-.39-.08c-.12.62-.47,1.65-.82,2.41.03,0,.37.06.4.06.04,0,.09,0,.13,0,.66.04,1.29.14,1.86.28.07-.21.1-.42.1-.65,0-.75-.4-1.43-1.03-1.87Z"/>
            <path class="cls-22" d="m59.96,34.84c1.54,0,2.78,1.08,2.78,2.41,0,.23-.03.44-.1.65-.79-.21-1.69-.31-2.68-.31"/>
          </g>
          <path class="cls-16" d="m67.23,41.76c-.69-2.38-3.23-4.16-7.22-4.16s-6.46,1.94-7.22,4.16c-.18.52.04,2.46.14,2.73s.59-4.97,7.08-5.27c6.48-.3,7.04,5.66,7.14,5.27.15-.59.23-2.21.07-2.73Z"/>
          <g>
            <path class="cls-27" d="m64.48,40.26c2.36,1.53,2.67,4.2,2.68,4.23.19-.67.23-2.21.07-2.73-.36-1.22-1.2-2.29-2.47-3.03"/>
            <path class="cls-24" d="m64.06,40.08c2.61,1.5,2.99,3.86,2.99,3.89.25-.86.33-1.69.18-2.21-.38-1.31-1.32-2.44-2.75-3.18"/>
          </g>
          <g>
            <g>
              <path class="cls-18" d="m67.94,47.65l.31,5.95c0,.15,0,.31-.06.46-.15.4-.59,1.07-1.91,1.1s-1.86-.61-2.1-1.03c-.11-.19-.15-.41-.13-.63l.71-6.02s.44-1.2,1.68-1.18c.83.02,1.22.53,1.39.88.07.15.11.31.12.48Z"/>
              <path class="cls-28" d="m67.94,47.63c0-.17-.05-.33-.12-.48-.06-.13-.16-.29-.31-.44.02,1.71-.01,5.98-.83,8.38,1.01-.15,1.37-.71,1.5-1.07.05-.15.07-.3.06-.46l-.31-5.95Z"/>
              <path class="cls-22" d="m66.66,55.13c1.01-.15,1.39-.71,1.52-1.07.05-.15.07-.3.06-.46l-.31-5.95c0-.17-.05-.33-.12-.48-.06-.13-.19-.32-.33-.47"/>
            </g>
            <g>
              <path class="cls-18" d="m52.05,47.65l-.31,5.95c0,.15,0,.31.06.46.15.4.59,1.07,1.91,1.1s1.86-.61,2.1-1.03c.11-.19.15-.41.13-.63l-.71-6.02s-.44-1.2-1.68-1.18c-.83.02-1.22.53-1.39.88-.07.15-.11.31-.12.48Z"/>
              <path class="cls-28" d="m55.95,53.5l-.71-6.02s-.29-.79-1.06-1.07l-1.69,8.45c.29.17.68.29,1.23.3,1.27.03,1.86-.61,2.1-1.03.11-.19.15-.41.13-.63Z"/>
              <path class="cls-22" d="m54.18,46.4c.77.29,1.06,1.07,1.06,1.07l.71,6.02c.03.22-.02.44-.13.63-.25.42-.83,1.06-2.1,1.03-.55-.01-.94-.14-1.23-.3l-.04-.02"/>
            </g>
            <g>
              <g>
                <g>
                  <path class="cls-13" d="m60.72,41.38c.82.1,3.18.54,4.53,2.22.09.11.15.25.17.39l1.07,6.15s.76,3.74-3.74,4.91c0,0-.93.48-2.73.62h0c-1.8-.14-2.77-.62-2.77-.62-4.5-1.18-3.74-4.91-3.74-4.91l1.07-6.15c.02-.14.08-.28.17-.39,1.35-1.67,3.67-2.11,4.49-2.22.16-.02.35-.03.51-.03h.49c.16,0,.3,0,.47.03Z"/>
                  <path class="cls-29" d="m58.71,43.29s.97.23,1.35.6c0,0,.39-.6,1.25-.6h-2.6Z"/>
                  <path class="cls-3" d="m63.47,43.2s-2.18-.45-3.46.69c-1.28-1.14-3.46-.69-3.46-.69"/>
                </g>
                <g>
                  <g>
                    <path class="cls-28" d="m58.82,45.12s-.87,2.41-2.27,2.24c0,0,.91,0,1.68-.23.44-.13.9-1.03.59-2.01Z"/>
                    <path class="cls-24" d="m58.97,45.54c0-.15-.06-.29-.15-.42-.23-.31-.76-.79-1.85-.81-1.16-.02-1.62.54-1.8.85-.06.11-.09.24-.09.37v.66c0,.08.01.16.04.23.1.31.47.96,1.85.96.89,0,1.4-.25,1.68-.49"/>
                  </g>
                  <g>
                    <path class="cls-28" d="m64.85,45.08s-.87,2.41-2.27,2.24c0,0,3.15.55,2.27-2.24Z"/>
                    <path class="cls-24" d="m61.05,45.54c0-.15.06-.3.15-.42.23-.31.76-.79,1.85-.81,1.16-.02,1.62.54,1.8.85.06.11.09.24.09.37v.66c0,.08-.01.16-.04.23-.1.31-.47.96-1.85.96-.91,0-1.42-.26-1.69-.51"/>
                  </g>
                  <g>
                    <path class="cls-28" d="m61.93,47.29s-.05.96-.99,1.14h-3.38s.06.84.93,1.03h3.11s.6-.17.83-.73c.31-.75-.5-1.44-.5-1.44Z"/>
                    <path class="cls-24" d="m61.12,45.93c0-.61-.5-1.12-1.11-1.12s-1.11.5-1.11,1.12c0,0,0,0,0,0h0l-.31,1.15c.06,0,.2,0,.15,0-.57,0-1.04.4-1.16.92-.02.09-.03.17-.03.27,0,.66.53,1.19,1.19,1.19h2.53c.66,0,1.19-.53,1.19-1.19,0-.09-.01-.18-.03-.27-.12-.53-.59-.89-1.16-.92-.07,0,.19.01.14,0l-.3-1.15Z"/>
                  </g>
                </g>
              </g>
              <g>
                <path class="cls-28" d="m66.49,50.14l-1.07-6.15c-.02-.14-.08-.28-.17-.39-.17-.21-.35-.4-.55-.57.29,1.76.73,5.07.94,6.72.12.93-.13,1.89-.72,2.62-.72.88-2.03,1.88-4.38,2.35-2.62.52-5.14-1.11-6.86-2.65.35,1.1,1.27,2.39,3.59,2.99,0,0,.97.48,2.77.62,1.8-.14,2.73-.62,2.73-.62,4.5-1.18,3.74-4.91,3.74-4.91Z"/>
                <path class="cls-23" d="m53.68,52.06c.35,1.1,1.27,2.39,3.59,2.99,0,0,.97.48,2.77.62,1.8-.14,2.73-.62,2.73-.62,4.5-1.18,3.74-4.91,3.74-4.91l-1.07-6.15c-.02-.14-.08-.28-.17-.39-.17-.21-.35-.4-.55-.57"/>
              </g>
            </g>
          </g>
          <path class="cls-4" d="m58.06,47.29s-.99.32-1.2,1.48"/>
          <path class="cls-4" d="m61.96,47.29s.99.32,1.2,1.48"/>
          <path class="cls-4" d="m58.02,50.14s1.65,1.32,3.89,0"/>
          <path class="cls-5" d="m59.3,51.23s.56.37,1.4,0"/>
        </g>
      </g>
      <text class="cls-9" transform="translate(72.97 32.2)"><tspan class="cls-33" x="0" y="0">W</tspan><tspan x="32.56" y="0">ITH </tspan><tspan class="cls-34" x="97.96" y="0">J</tspan><tspan class="cls-32" x="116.38" y="0">E</tspan><tspan class="cls-34" x="137.11" y="0">J</tspan><tspan x="155.53" y="0">U</tspan></text>
      <text class="cls-31" transform="translate(95.86 54.44)"><tspan x="0" y="0">welcome jeju island</tspan></text>
    </g>
  </g>
</svg>