<?xml version="1.0" encoding="utf-8"?>
<!-- Generator: Adobe Illustrator 28.0.0, SVG Export Plug-In . SVG Version: 6.00 Build 0)  -->
<svg version="1.1" id="레이어_1" xmlns="http://www.w3.org/2000/svg" xmlns:xlink="http://www.w3.org/1999/xlink" x="0px"
	 y="0px" viewBox="0 0 16.1 16.1" style="enable-background:new 0 0 16.1 16.1;" xml:space="preserve">
<style type="text/css">
	.st0{fill:#4E4E4E;}
	.st1{fill:#FFFFFF;}
</style>
<g>
	<g>
		<path class="st0" d="M10.2,14.7H2.4c-1.5,0-2.8-1.2-2.8-2.8V4.1c0-1.5,1.2-2.8,2.8-2.8h3.9c0.5,0,0.9,0.4,0.9,0.9S6.7,3,6.3,3H2.4
			C1.8,3,1.3,3.5,1.3,4.1v7.8c0,0.6,0.5,1.1,1.1,1.1h7.8c0.6,0,1.1-0.5,1.1-1.1V8c0-0.5,0.4-0.9,0.8-0.9S13,7.5,13,8v3.9
			C13,13.4,11.7,14.7,10.2,14.7z"/>
	</g>
	<path class="st0" d="M14.8-1.4h-4.6C9.8-1.4,9.4-1,9.4-0.5s0.4,0.9,0.8,0.9h2.5L5.2,7.8C4.9,8.2,4.9,8.7,5.2,9
		c0.2,0.2,0.4,0.2,0.6,0.2S6.2,9.2,6.4,9l7.5-7.5V4c0,0.5,0.4,0.9,0.8,0.9s0.8-0.4,0.8-0.9v-4.6C15.6-1,15.3-1.4,14.8-1.4z"/>
</g>
<g>
	<g>
		<path class="st1" d="M-4.9,15.6h-7.8c-1.5,0-2.8-1.2-2.8-2.8V5c0-1.5,1.2-2.8,2.8-2.8h3.9c0.5,0,0.9,0.4,0.9,0.9s-0.4,0.9-0.9,0.9
			h-3.9c-0.6,0-1.1,0.5-1.1,1.1v7.8c0,0.6,0.5,1.1,1.1,1.1h7.8c0.6,0,1.1-0.5,1.1-1.1V8.9C-3.8,8.4-3.4,8-2.9,8s0.8,0.4,0.8,0.9v3.9
			C-2.1,14.3-3.3,15.6-4.9,15.6z"/>
	</g>
	<path class="st1" d="M-0.3-0.5h-4.6c-0.5,0-0.8,0.4-0.8,0.9s0.4,0.9,0.8,0.9h2.5l-7.5,7.5c-0.3,0.3-0.3,0.9,0,1.2
		c0.2,0.2,0.4,0.2,0.6,0.2s0.4-0.1,0.6-0.2l7.5-7.5v2.5c0,0.5,0.4,0.9,0.8,0.9s0.8-0.4,0.8-0.9V0.4C0.6-0.1,0.2-0.5-0.3-0.5z"/>
</g>
</svg>
