<?xml version="1.0" encoding="UTF-8"?>
<svg id="_레이어_2" data-name="레이어 2" xmlns="http://www.w3.org/2000/svg" viewBox="0 0 154.78 127.99">
  <defs>
    <style>
      .cls-1 {
        fill: #fff;
        stroke-width: 0px;
      }
    </style>
  </defs>
  <g id="_레이어_1-2" data-name="레이어 1">
    <path class="cls-1" d="m153.8,101.8l-23.56-26.52v-12.98h15.35c2.44,0,3.51-3.09,1.59-4.6l-23.12-18.2c-.22-.17-.34-.43-.34-.71v-11.82h18.38c2.44,0,3.51-3.07,1.6-4.59L116.66.85c-.69-.55-1.55-.85-2.43-.85H40.55c-.88,0-1.74.3-2.43.85L11.08,22.39c-1.91,1.52-.83,4.59,1.6,4.59h18.38v11.82c0,.28-.13.54-.34.71L7.6,57.71c-1.92,1.51-.85,4.6,1.59,4.6h15.35v12.98L.98,101.8c-.63.71-.98,1.63-.98,2.59v19.7c0,2.15,1.74,3.9,3.9,3.9h146.99c2.15,0,3.9-1.74,3.9-3.9v-19.7c0-.95-.35-1.87-.98-2.59ZM33.64,16.17l8.51-6.78c.16-.13.36-.2.56-.2h69.35c.2,0,.4.07.56.2l8.51,6.78c.67.53.29,1.61-.56,1.61H34.21c-.85,0-1.23-1.08-.56-1.61Zm80.88,10.81v9.89H40.26v-9.89h74.26ZM30.35,51.5l6.65-5.24c.16-.13.36-.19.56-.19h79.65c.2,0,.4.07.56.19l6.65,5.24c.67.53.3,1.61-.56,1.61H30.91c-.86,0-1.23-1.08-.56-1.61Zm90.69,10.81v10.13H33.74v-10.13h87.3Zm-31,56.48h-25.3v-12c0-.64.09-1.22.27-1.76.99-2.98,3.93-6.53,12.39-6.53s11.4,3.55,12.39,6.53c.18.53.26,1.12.26,1.76v12Zm55.54,0h-46.34v-12c0-1.62-.25-3.18-.73-4.65-1.28-3.86-5.89-12.84-21.12-12.84s-19.84,8.98-21.12,12.84c-.49,1.46-.73,3.03-.73,4.65v12H9.2v-12.04c0-.22.08-.43.23-.6l21.51-24.21c.17-.19.42-.3.67-.3h91.56c.26,0,.5.11.67.3l21.51,24.21c.15.17.23.38.23.6v12.04Z"/>
  </g>
</svg>