<?xml version="1.0" encoding="UTF-8"?>
<svg id="_레이어_2" data-name="레이어 2" xmlns="http://www.w3.org/2000/svg" viewBox="0 0 116.22 104.21">
  <defs>
    <style>
      .cls-1 {
        fill: #353636;
        stroke-width: 0px;
      }
    </style>
  </defs>
  <g id="_레이어_1-2" data-name="레이어 1">
    <g>
      <path class="cls-1" d="m51.22,35h-28.74c-1.07,0-1.95.87-1.95,1.95s.87,1.95,1.95,1.95h28.74c1.07,0,1.95-.87,1.95-1.95s-.87-1.95-1.95-1.95Z"/>
      <path class="cls-1" d="m27.75,29.74h18.2c1.07,0,1.95-.87,1.95-1.95s-.87-1.95-1.95-1.95h-18.2c-1.07,0-1.95.87-1.95,1.95s.87,1.95,1.95,1.95Z"/>
      <path class="cls-1" d="m51.22,44.14h-28.74c-1.07,0-1.95.87-1.95,1.95s.87,1.95,1.95,1.95h28.74c1.07,0,1.95-.87,1.95-1.95s-.87-1.95-1.95-1.95Z"/>
      <path class="cls-1" d="m51.22,53.29h-28.74c-1.07,0-1.95.87-1.95,1.95s.87,1.95,1.95,1.95h28.74c1.07,0,1.95-.87,1.95-1.95s-.87-1.95-1.95-1.95Z"/>
      <path class="cls-1" d="m51.22,62.44h-28.74c-1.07,0-1.95.87-1.95,1.95s.87,1.95,1.95,1.95h28.74c1.07,0,1.95-.87,1.95-1.95s-.87-1.95-1.95-1.95Z"/>
      <path class="cls-1" d="m51.22,71.59h-28.74c-1.07,0-1.95.87-1.95,1.95s.87,1.95,1.95,1.95h28.74c1.07,0,1.95-.87,1.95-1.95s-.87-1.95-1.95-1.95Z"/>
      <path class="cls-1" d="m114.28,19.15h-6.58l-1.4-.9c2.44-10.34,1.64-16.23,1.58-16.6,0-.06-.03-.12-.05-.18-.02-.06-.03-.13-.05-.19-.02-.06-.05-.11-.07-.16-.03-.06-.05-.13-.09-.19-.03-.05-.07-.09-.1-.14-.04-.06-.08-.11-.12-.16-.04-.05-.09-.09-.14-.13-.05-.04-.09-.09-.14-.12-.06-.04-.12-.08-.19-.12-.04-.03-.08-.05-.13-.08-.08-.04-.16-.06-.24-.09-.04-.01-.07-.03-.11-.04-.09-.02-.18-.03-.26-.05-.04,0-.07-.01-.11-.02-.08,0-.15,0-.23,0-.05,0-.1,0-.15,0-.55.07-11.55,1.68-23.54,14.43-7.61-.03-15.2-.02-17.16.13-3.02.22-5.43,1.94-6.9,3.3-1.47-1.36-3.88-3.08-6.9-3.3-4.17-.3-33.73-.02-34.99,0-.37,0-.72.11-1.03.31l-6.67,4.28H1.95c-1.07,0-1.95.87-1.95,1.95v78.61c0,1.07.87,1.95,1.95,1.95h50.49v.61c0,1.07.87,1.95,1.95,1.95h7.46c1.07,0,1.95-.87,1.95-1.95v-.61h50.49c1.07,0,1.95-.87,1.95-1.95V21.1c0-1.07-.87-1.95-1.95-1.95Zm-8.57,3.35v65.97l-3.03-3.03V29.89c1.05-2.74,1.89-5.3,2.58-7.68l.45.29Zm-21.82-4.16c1.28-1.42,2.54-2.71,3.79-3.87,7.04-6.57,13.36-9.15,16.48-10.09.03,2.24-.16,6.19-1.34,11.64-.07.35-.16.71-.25,1.07-.22.94-.45,1.9-.73,2.92-.75,2.76-1.75,5.82-3.04,9.15-.89,2.29-1.92,4.7-3.13,7.25l-.05.04-2.87,2.44-4.38,3.73c-.45.38-.7.95-.68,1.53,0,.1.01.21.03.31.13.69.62,1.25,1.28,1.48l1.56.53-1.12,1.57-3.75,5.26-1.99,2.79-2.75,1.1-7.47,2.99c.33-1.01.68-2,1.03-2.99.47-1.31.95-2.61,1.45-3.89.7-1.79,1.42-3.54,2.16-5.26.57-1.32,1.15-2.62,1.74-3.89.84-1.81,1.69-3.56,2.54-5.26.67-1.34,1.35-2.63,2.02-3.89.98-1.85,1.96-3.6,2.91-5.26.73-1.27,1.44-2.47,2.13-3.61,1.86-3.08,3.55-5.68,4.92-7.72,1.16-1.72,2.09-3.03,2.7-3.87.49-.67.77-1.05.8-1.08.65-.85.49-2.07-.36-2.73-.85-.65-2.07-.5-2.73.36-.17.22-1.08,1.41-2.48,3.41-.74,1.07-1.63,2.37-2.62,3.87-1.38,2.11-2.97,4.61-4.66,7.47-.73,1.23-1.48,2.53-2.24,3.89-.93,1.67-1.88,3.42-2.83,5.26-.65,1.26-1.31,2.56-1.96,3.89-.83,1.7-1.65,3.45-2.46,5.26-.57,1.27-1.13,2.57-1.68,3.89-.72,1.72-1.41,3.47-2.08,5.26-.33.88-.66,1.77-.97,2.66l-.82-2.66-1.61-5.26-.87-2.83.48-1.06,2.4-5.26,1.77-3.89.17-.38.44.38.81.71c.53.46,1.26.6,1.92.37.52-.18.94-.58,1.15-1.08.05-.13.1-.26.13-.41l.89-4.85.71-3.89.12-.68c1.79-2.57,3.59-4.83,5.38-6.83ZM10.51,22.5l3.03-1.95v64.88l-3.03,3.03V22.5Zm41.92,75.27H3.89V23.04h2.73v69.75c0,1.07.87,1.95,1.95,1.95h43.87v3.03Zm-38.79-6.92l2.65-2.65h33.35c1.4,0,3.08,0,5.19,2.65H13.64Zm42.53-4.25c-2.34-2.06-4.55-2.3-6.53-2.3H17.43V18.44c5.65-.05,29.94-.25,33.5,0,2.44.18,4.43,2.09,5.24,2.98v65.17Zm3.73,13.73h-3.57v-5.59h3.57v5.59Zm.16-78.89c.8-.89,2.8-2.8,5.24-2.98,1.57-.11,7.21-.14,13.49-.13-1.24,1.53-2.49,3.18-3.72,4.98-.15.23-.26.48-.31.75l-.33,1.79-.71,3.89-.14.78-.63-.55c-.1-.09-.21-.16-.33-.23-.41-.23-.89-.31-1.36-.21-.19.04-.37.12-.53.21-.36.2-.65.5-.83.88l-1.99,4.37h-2.89c-1.07,0-1.95.87-1.95,1.95s.87,1.95,1.95,1.95h1.12l-2.45,5.38c-.09.19-.13.39-.16.59-.03.26-.01.53.07.79l.69,2.25,1.66,5.4h-.92c-1.07,0-1.95.87-1.95,1.95s.87,1.95,1.95,1.95h2.11l1.6,5.21s0,.03-.01.05h-3.69c-1.07,0-1.95.87-1.95,1.95s.87,1.95,1.95,1.95h2.6c-.46,1.73-.88,3.49-1.26,5.26h-1.34c-1.07,0-1.95.87-1.95,1.95s.87,1.95,1.95,1.95h28.74c1.07,0,1.95-.87,1.95-1.95s-.87-1.95-1.95-1.95h-23.41c.4-1.77.83-3.52,1.31-5.26h22.1c1.07,0,1.95-.87,1.95-1.95s-.87-1.95-1.95-1.95h-15.44l7.39-2.96c.35-.14.64-.37.86-.68l1.16-1.62h6.03c1.07,0,1.95-.87,1.95-1.95s-.87-1.95-1.95-1.95h-3.26l3.81-5.35.96-1.35c.22-.31.33-.68.35-1.05,0-.23,0-.46-.08-.68-.19-.59-.64-1.05-1.22-1.25l-.8-.27,5-4.26c.11-.09.2-.19.29-.3v45.51h-32.21c-1.98,0-4.19.24-6.53,2.3V21.43Zm1.33,69.41c2.11-2.65,3.79-2.65,5.19-2.65h33.35l2.65,2.65h-41.2Zm50.94,6.92h-48.54v-3.03h43.87c1.07,0,1.95-.87,1.95-1.95V23.04h2.73v74.72Z"/>
    </g>
  </g>
</svg>