<?xml version="1.0" encoding="UTF-8"?>
<svg id="_레이어_2" data-name="레이어 2" xmlns="http://www.w3.org/2000/svg" viewBox="0 0 116.22 116.22">
  <defs>
    <style>
      .cls-1 {
        fill: #353636;
        stroke-width: 0px;
      }
    </style>
  </defs>
  <g id="_레이어_1-2" data-name="레이어 1">
    <g>
      <circle class="cls-1" cx="56.28" cy="32.46" r="8.49"/>
      <path class="cls-1" d="m70.01,76.71c-.31.19-1.38,1.02-1.81,1.45-.91.91-1.34.96-1.84.85-.14-.03-.23-.18-.23-.32,0-.06,0-.13,0-.19v-24.94c0-4.48-3.58-8.11-8-8.11-.36,0-.71.03-1.05.08-.51.05-1.02.14-1.45.3-.15.06-.3.13-.45.19-.12.05-.24.1-.35.15-2.72,1.23-5.71,3.57-8.57,7.77-1.66,2.44-2.28,5.34-2.28,5.65s-.21,1.09.31,1.61,1.61,0,1.92-.19c.31-.19,1.38-1.02,1.81-1.45.91-.91,1.34-.96,1.84-.85.14.03.23.18.23.32.02.87.04,2.74.04,4.86,0,2.27-.01,10.31-.01,10.31h.02s0,9.93,0,9.93c0,4.48,3.58,8.11,8,8.11.05,0,.11,0,.16,0,.76,0,1.63-.08,2.29-.34,2.92-1.12,6.23-3.5,9.37-8.12,1.66-2.44,2.28-5.34,2.28-5.65s.21-1.09-.31-1.61c-.52-.52-1.61,0-1.92.19Z"/>
      <path class="cls-1" d="m58.11,0C26.07,0,0,26.07,0,58.11s26.07,58.11,58.11,58.11,58.11-26.07,58.11-58.11S90.15,0,58.11,0Zm0,109.25c-28.2,0-51.14-22.94-51.14-51.14S29.91,6.97,58.11,6.97s51.14,22.94,51.14,51.14-22.94,51.14-51.14,51.14Z"/>
    </g>
  </g>
</svg>