<?xml version="1.0" encoding="UTF-8"?>
<svg id="_레이어_2" data-name="레이어 2" xmlns="http://www.w3.org/2000/svg" viewBox="0 0 203.08 186.92">
  <defs>
    <style>
      .cls-1 {
        fill: #fff;
        stroke-width: 0px;
      }
    </style>
  </defs>
  <g id="_레이어_1-2" data-name="레이어 1">
    <g>
      <path class="cls-1" d="m92.75,110.04c-14.16-.47-26.96.8-37.56,2.65-.7.12-1.39.25-2.08.37-.4.07-.8-.15-.94-.53-4.69-12.42-6.57-24.8-5.59-37.09.51-6.35,1.76-12.35,3.53-17.97.13-.41.55-.66.97-.57,1.35.26,2.72.52,4.11.76,9.13,1.59,19.87,2.76,31.72,2.76,10.06,0,20.92-.86,32.24-3.02.43-.08.86.17.99.59,1.67,5.45,2.87,11.25,3.37,17.38.68,8.45,0,16.96-2.02,25.49-.13.54.27,1.05.83,1.05h5.44c.4,0,.76-.28.84-.68,1.96-8.82,2.59-17.63,1.88-26.42-.52-6.43-1.73-12.5-3.42-18.21-.14-.47.13-.94.61-1.06,8.18-2.01,16.56-4.73,25.02-8.34.41-.17.89-.02,1.1.37,6.09,11.14,9.57,23.9,9.57,37.46,0,4.62-.41,9.14-1.19,13.54-.09.52.3.99.82,1,1.69.03,3.37.07,5.06.1.43,0,.8-.3.87-.72.75-4.53,1.15-9.18,1.15-13.92,0-14.84-3.83-28.81-10.55-40.96-1.13-2.05-2.35-4.05-3.64-5.99C141,15.68,115.79.74,87.09.05c0,0,0,0-.01,0-.68-.02-1.36-.05-2.04-.05s-1.36.04-2.04.05h0s0,0,0,0C54.28.74,29.05,15.7,14.16,38.12c-1.3,1.96-2.53,3.97-3.67,6.04C3.81,56.3,0,70.23,0,85.04s3.86,28.91,10.62,41.1c1.15,2.07,2.37,4.08,3.68,6.04,15.26,22.83,41.27,37.91,70.74,37.91,2.53,0,5.03-.11,7.5-.33.45-.04.79-.42.78-.87-.04-1.98-.06-3.97-.07-5.95,0,0-.02,0-.03,0,0,0,.02-.02.03-.03,0-2.75.02-5.51.04-8.26,0-.8-.97-1.17-1.5-.57-1.95,2.22-3.99,4.44-6.12,6.66-.34.36-.92.36-1.27,0-12.92-13.44-22.58-26.93-28.93-40.39-.13-.27.03-.59.33-.65,10.07-1.79,22.29-3.05,35.83-2.68.45.01.82-.32.87-.76.2-1.74.53-3.44,1.03-5.08.17-.55-.22-1.11-.79-1.13Zm5.8-102.13c20.8,3.63,38.8,15.48,50.51,32.08.32.45.13,1.09-.38,1.31-7.93,3.3-15.79,5.81-23.46,7.65-.41.1-.83-.13-.99-.52-6.98-17.56-18.16-30.88-26.44-39.06-.6-.59-.07-1.6.76-1.45Zm-14.05-.12c.32-.27.78-.27,1.1,0,6.25,5.19,22.32,20.02,31.49,41.81.21.51-.11,1.1-.65,1.19-23.03,4.17-43.97,2.75-59.8.01-.94-.16-1.87-.33-2.8-.51-.54-.1-.84-.68-.63-1.18,9.21-21.5,25.09-36.17,31.29-41.33ZM21.12,39.86c11.72-16.53,29.68-28.33,50.42-31.95.83-.15,1.36.86.76,1.45-8.2,8.1-19.24,21.25-26.23,38.55-.16.4-.59.62-1,.52-9.6-2.29-17.63-4.99-23.56-7.27-.52-.2-.71-.84-.39-1.29Zm-4.64,82.96c-6.21-11.21-9.76-24.09-9.76-37.78s3.5-26.4,9.63-37.56c.21-.38.66-.54,1.06-.38,6.11,2.42,14.67,5.39,25.13,7.93.48.12.77.61.63,1.08-1.77,5.85-3.03,12.09-3.56,18.71-1.04,12.94.82,25.93,5.53,38.91.18.49-.11,1.01-.62,1.13-11.29,2.61-20.5,5.78-26.99,8.35-.4.16-.85,0-1.05-.38Zm58.8,38.39c.54.6.05,1.54-.75,1.43-21.91-2.95-40.97-15.01-53.26-32.22-.32-.45-.13-1.1.39-1.3,6.4-2.46,15.23-5.39,25.82-7.77.4-.09.81.11.98.48,6,13.17,14.95,26.32,26.82,39.37Z"/>
      <polygon class="cls-1" points="170.22 114.21 155.59 114.21 120.93 150.46 120.93 114.21 109.06 114.21 109.06 186.92 120.93 186.92 120.93 164.03 134.18 151.84 156.97 186.92 170.96 186.92 142.24 143.46 170.22 114.21"/>
      <path class="cls-1" d="m201.01,130.21c-.88-.21-1.89-.32-3.02-.32-2.4,0-4.44.5-6.09,1.48-1.66.99-3,2.26-4.03,3.82-1.02,1.55-1.85,3.22-2.49,4.98h-.64l-.95-9.01h-9.12v55.76h11.02v-29.89c0-2.47.27-4.7.79-6.68.53-1.98,1.38-3.66,2.54-5.04,1.17-1.38,2.61-2.42,4.35-3.13,1.73-.71,3.73-1.06,5.99-1.06h3.71v-10.39c-.49-.14-1.18-.32-2.07-.53Z"/>
    </g>
  </g>
</svg>