<?xml version="1.0" encoding="UTF-8"?>
<svg id="_레이어_2" data-name="레이어 2" xmlns="http://www.w3.org/2000/svg" viewBox="0 0 126.15 152.63">
  <defs>
    <style>
      .cls-1 {
        fill: #353636;
        stroke-width: 0px;
      }
    </style>
  </defs>
  <g id="_레이어_1-2" data-name="레이어 1">
    <g>
      <path class="cls-1" d="m63.08,76.86c-21.19,0-38.43-17.24-38.43-38.43S41.89,0,63.08,0s38.43,17.24,38.43,38.43-17.24,38.43-38.43,38.43Zm0-69.86c-17.33,0-31.43,14.1-31.43,31.43s14.1,31.43,31.43,31.43,31.43-14.1,31.43-31.43-14.1-31.43-31.43-31.43Z"/>
      <path class="cls-1" d="m126.15,152.63H0v-3.5c0-34.78,28.3-63.08,63.08-63.08s63.07,28.3,63.07,63.08v3.5Zm-119.04-7h111.93c-1.81-29.3-26.22-52.58-55.97-52.58S8.92,116.34,7.11,145.63Z"/>
    </g>
  </g>
</svg>