<?xml version="1.0" encoding="UTF-8"?>
<svg id="_레이어_2" data-name="레이어 2" xmlns="http://www.w3.org/2000/svg" viewBox="0 0 116.22 121.97">
  <defs>
    <style>
      .cls-1 {
        fill: #353636;
        stroke-width: 0px;
      }
    </style>
  </defs>
  <g id="_레이어_1-2" data-name="레이어 1">
    <g>
      <path class="cls-1" d="m96.56,95.99h-.74c-.02-5.75.01-10.79.03-15.31.03-4.63.05-8.68.01-12.29-.12-12.08-.89-19.2-4.35-26.4-2.11-4.4-4.64-7.83-7.33-10.54-4.93-4.97-10.38-7.45-14.76-8.67-2.63-.73-5.08-1.07-7.15-1.21-1.35-.14-2.72-.22-4.1-.22s-2.66.07-3.97.2c-2.13.13-4.66.47-7.4,1.23-4.72,1.31-10.68,4.08-15.89,9.85-2.26,2.51-4.38,5.57-6.2,9.35-3.42,7.11-4.21,14.13-4.35,25.93-.04,3.73-.02,7.93,0,12.77.02,4.52.05,9.56.03,15.31h-1.91c-6.89,0-12.49,5.6-12.49,12.49v13.48h103.05v-13.48c0-6.89-5.6-12.49-12.49-12.49Zm-68.52-11.89c0-1.18-.01-2.34-.02-3.46-.03-5.29-.05-9.73,0-13.56.15-10.29.86-16.12,3.58-21.78,1.42-2.96,3.07-5.38,4.83-7.37,6.48-7.31,14.56-8.69,19.11-8.81.82-.07,1.64-.11,2.47-.11.05,0,.1,0,.15,0,.01,0,.02,0,.03,0,.89,0,1.77.05,2.64.12,4.38.14,11.85,1.46,18.09,7.88,2.09,2.15,4.04,4.86,5.69,8.29,2.76,5.75,3.46,11.67,3.59,22.25.05,3.72.02,8.02,0,13.09,0,1.17-.01,2.37-.02,3.61-.02,3.57-.03,7.46-.02,11.75H28.05c.01-4.34,0-8.28-.02-11.89Zm73.37,30.22H13.65v-5.84c0-2.67,2.17-4.85,4.85-4.85h78.06c2.67,0,4.85,2.17,4.85,4.85v5.84Z"/>
      <path class="cls-1" d="m57.92,16.52c2.11,0,3.82-1.71,3.82-3.82V3.82c0-2.11-1.71-3.82-3.82-3.82s-3.82,1.71-3.82,3.82v8.87c0,2.11,1.71,3.82,3.82,3.82Z"/>
      <path class="cls-1" d="m90.29,24.19l6.27-6.27c1.49-1.49,1.49-3.91,0-5.41-1.49-1.49-3.91-1.49-5.41,0l-6.27,6.27c-1.49,1.49-1.49,3.91,0,5.41,1.49,1.49,3.91,1.49,5.41,0Z"/>
      <path class="cls-1" d="m112.4,46.3h-8.87c-2.11,0-3.82,1.71-3.82,3.82s1.71,3.82,3.82,3.82h8.87c2.11,0,3.82-1.71,3.82-3.82s-1.71-3.82-3.82-3.82Z"/>
      <path class="cls-1" d="m25.93,24.19c1.49,1.49,3.91,1.49,5.41,0,1.49-1.49,1.49-3.91,0-5.41l-6.27-6.27c-1.49-1.49-3.91-1.49-5.41,0-1.49,1.49-1.49,3.91,0,5.41l6.27,6.27Z"/>
      <path class="cls-1" d="m16.52,50.12c0-2.11-1.71-3.82-3.82-3.82H3.82c-2.11,0-3.82,1.71-3.82,3.82s1.71,3.82,3.82,3.82h8.87c2.11,0,3.82-1.71,3.82-3.82Z"/>
      <path class="cls-1" d="m36.64,58.59c.21.03.43.05.64.05,1.83,0,3.44-1.3,3.75-3.17.27-1.12,2.47-6.1,6.47-9.34,4.14-3.35,8.82-4,9.8-3.95,2.1.13,3.91-1.46,4.05-3.56.14-2.11-1.46-3.93-3.56-4.07-1.95-.14-8.9.63-15.09,5.64-5.55,4.49-8.77,11.42-9.19,13.96-.34,2.08,1.06,4.09,3.15,4.43Z"/>
    </g>
  </g>
</svg>