<?xml version="1.0" encoding="UTF-8"?>
<svg id="_레이어_2" data-name="레이어 2" xmlns="http://www.w3.org/2000/svg" viewBox="0 0 157.25 144.67">
  <defs>
    <style>
      .cls-1 {
        fill: #fff;
        stroke-width: 0px;
      }
    </style>
  </defs>
  <g id="_레이어_1-2" data-name="레이어 1">
    <path class="cls-1" d="m156.13,138.6l-40.09-37.13c7.6-10.53,12.1-23.45,12.1-37.4C128.14,28.74,99.4,0,64.07,0S0,28.74,0,64.07s28.74,64.07,64.07,64.07c18.86,0,35.83-8.19,47.57-21.2l39.74,36.8c.67.62,1.53.93,2.38.93.94,0,1.88-.38,2.57-1.12,1.31-1.42,1.23-3.63-.19-4.95Zm-92.06-17.46c-31.47,0-57.07-25.6-57.07-57.07S32.6,7,64.07,7s57.07,25.6,57.07,57.07-25.6,57.07-57.07,57.07Z"/>
  </g>
</svg>