<?xml version="1.0" encoding="UTF-8"?>
<svg id="_레이어_2" data-name="레이어 2" xmlns="http://www.w3.org/2000/svg" viewBox="0 0 154.78 155.9">
  <defs>
    <style>
      .cls-1 {
        fill: #fff;
        stroke-width: 0px;
      }
    </style>
  </defs>
  <g id="_레이어_1-2" data-name="레이어 1">
    <g>
      <path class="cls-1" d="m151.57.1l-27.69,7.89c.43.44.84.91,1.22,1.39-.39-.49-.8-.95-1.22-1.39-3.1-3.21-7.22-5.03-11.58-4.99-4.01.06-7.66,1.63-10.45,4.14-.59.54-1.15,1.12-1.66,1.73-.51.62-.97,1.27-1.39,1.96.41-.69.88-1.35,1.39-1.96.51-.62,1.06-1.2,1.66-1.73L78.05.67c-.43-.12-.89-.12-1.32,0l-35.92,9.77c-.44.12-.91.12-1.35,0L3.21.1C1.6-.36,0,.85,0,2.52v139.04c0,1.11.72,2.08,1.78,2.41l38.47,11.82c.48.15,1,.15,1.48,0l34.92-10.75c.48-.15,1-.15,1.48,0l34.92,10.75c.48.15,1,.15,1.48,0l38.47-11.82c1.06-.33,1.78-1.3,1.78-2.41V2.52c0-1.67-1.6-2.88-3.21-2.42Zm-49.54,16.61c.79-3.53,3.31-6.42,6.63-7.71,1.16-.46,2.41-.72,3.73-.74.05,0,.1,0,.15,0,1.85,0,3.64.53,5.24,1.49,1.56.94,2.93,2.28,3.98,3.97.82,1.31,1.3,2.65,1.49,4.02.78,5.52-3.29,11.69-10.67,19.99-5.35-6.07-10.8-12.73-10.8-18.69,0-.8.1-1.57.26-2.32Zm43.57,118.07c0,1.11-.72,2.08-1.78,2.41l-29.29,9c-.48.15-1,.15-1.48,0l-34.92-10.75c-.48-.15-1-.15-1.48,0l-34.92,10.75c-.48.15-1,.15-1.48,0l-29.29-9c-1.06-.33-1.78-1.3-1.78-2.41V14.69c0-1.67,1.6-2.88,3.21-2.42l27,7.7c.44.13.91.13,1.35,0l35.98-9.78c.43-.12.89-.12,1.32,0l18.92,5.14c-.29,1.19-.45,2.42-.45,3.7,0,8.54,7.27,16.72,13.68,23.93.59.67,1.44,1.05,2.33,1.06h.02c.88,0,1.72-.37,2.32-1.02,6.28-6.89,15.27-16.76,13.43-26.72l14.08-4.01c1.61-.46,3.21.75,3.21,2.42v120.09Z"/>
      <circle class="cls-1" cx="112.53" cy="18.14" r="5.23"/>
      <path class="cls-1" d="m34.07,119.08c.88,0,1.72-.37,2.32-1.02,6.28-6.89,15.27-16.76,13.43-26.72-.33-1.79-1-3.57-2.1-5.35h0c-.68-1.09-1.47-2.06-2.32-2.94-3.1-3.21-7.22-5.03-11.58-4.99-4.01.06-7.66,1.63-10.45,4.14-2.38,2.15-4.12,4.98-4.88,8.19-.29,1.19-.45,2.42-.45,3.7,0,8.54,7.27,16.72,13.68,23.93.59.67,1.44,1.05,2.33,1.06h.02Zm-10.79-24.99c0-.8.1-1.57.26-2.32.79-3.53,3.31-6.42,6.63-7.71,1.16-.46,2.41-.72,3.73-.74.05,0,.1,0,.15,0,1.85,0,3.64.53,5.24,1.49,1.56.94,2.93,2.28,3.98,3.97.82,1.31,1.3,2.65,1.49,4.02.78,5.52-3.29,11.69-10.67,19.99-5.35-6.07-10.8-12.73-10.8-18.69Z"/>
      <circle class="cls-1" cx="34.05" cy="93.2" r="5.23"/>
      <path class="cls-1" d="m70.45,67.37v8.56c0,.92.74,1.66,1.66,1.66h10.73c.92,0,1.66-.74,1.66-1.66v-8.56c0-.46-.19-.91-.54-1.22l-5.46-5.03c-.65-.6-1.64-.59-2.28.02l-5.27,5.04c-.33.31-.51.75-.51,1.2Zm3.94,1.68c0-.45.19-.89.51-1.2l1.38-1.32c.63-.61,1.63-.62,2.28-.02l1.47,1.36c.34.31.54.76.54,1.22v2.9c0,.92-.74,1.66-1.66,1.66h-2.86c-.92,0-1.66-.74-1.66-1.66v-2.94Z"/>
      <path class="cls-1" d="m124.52,57.64h10.73c.92,0,1.66-.74,1.66-1.66v-8.56c0-.46-.19-.91-.54-1.22l-5.46-5.03c-.65-.6-1.64-.59-2.28.02l-5.27,5.04c-.33.31-.51.75-.51,1.2v8.56c0,.92.74,1.66,1.66,1.66Zm2.27-8.54c0-.45.19-.89.51-1.2l1.38-1.32c.63-.61,1.63-.62,2.28-.02l1.47,1.36c.34.31.54.76.54,1.22v2.9c0,.92-.74,1.66-1.66,1.66h-2.86c-.92,0-1.66-.74-1.66-1.66v-2.94Z"/>
      <path class="cls-1" d="m81.44,42.33h3.12c.44,0,.8.36.8.8v3.39c0,.49.4.89.89.89h2.17c.49,0,.89-.4.89-.89v-3.39c0-.44.36-.8.8-.8h3.92c.94,0,1.58-.95,1.23-1.82l-6.53-16.33c-.45-1.13-2.06-1.11-2.48.03l-6.05,16.33c-.32.87.32,1.79,1.25,1.79Zm4.22-5.22l1.06-2.87c.3-.82,1.45-.83,1.77-.02l1.15,2.87c.25.62-.21,1.3-.88,1.3h-2.21c-.66,0-1.12-.66-.89-1.28Z"/>
      <path class="cls-1" d="m131.11,107.16c-.45-1.13-2.06-1.11-2.48.03l-6.05,16.33c-.32.87.32,1.79,1.25,1.79h3.12c.44,0,.8.36.8.8v3.39c0,.49.4.89.89.89h2.17c.49,0,.89-.4.89-.89v-3.39c0-.44.36-.8.8-.8h3.92c.94,0,1.58-.95,1.23-1.82l-6.53-16.33Zm.04,14.21h-2.21c-.66,0-1.12-.66-.89-1.28l1.06-2.87c.3-.82,1.45-.83,1.77-.02l1.15,2.87c.25.62-.21,1.3-.88,1.3Z"/>
      <path class="cls-1" d="m61.14,42.33h3.12c.44,0,.8.36.8.8v3.39c0,.49.4.89.89.89h2.17c.49,0,.89-.4.89-.89v-3.39c0-.44.36-.8.8-.8h3.92c.94,0,1.58-.95,1.23-1.82l-6.53-16.33c-.45-1.13-2.06-1.11-2.48.03l-6.05,16.33c-.32.87.32,1.79,1.25,1.79Zm4.22-5.22l1.06-2.87c.3-.82,1.45-.83,1.77-.02l1.15,2.87c.25.62-.21,1.3-.88,1.3h-2.21c-.66,0-1.12-.66-.89-1.28Z"/>
      <path class="cls-1" d="m21.09,57.81c.46.32,1.09.21,1.42-.25l6.84-9.71c.36-.52,1.11-.58,1.55-.13l4.7,4.7c.4.4.4,1.04,0,1.44l-.7.7c-.4.4-.4,1.04,0,1.44l1.48,1.48c.4.4,1.04.4,1.44,0l4.37-4.37c.4-.4,1.04-.4,1.44,0l4.24,4.24c.4.4,1.04.4,1.44,0l1.48-1.48c.4-.4.4-1.04,0-1.44l-7.16-7.16c-.4-.4-1.04-.4-1.44,0l-2.22,2.22c-.4.4-1.04.4-1.44,0l-8.17-8.17c-.45-.45-1.19-.38-1.55.13l-9.67,13.73c-.32.46-.21,1.09.25,1.42l1.71,1.21Z"/>
      <path class="cls-1" d="m131.5,67.21c-.33-.03-.65-.01-.97-.01.02,0,.04,0,.07,0v-.03h-11.56s-.06,0-.09,0c-.01,0-.02,0-.04,0-2.06-.02-3.73-1.68-3.77-3.74h0v-11.86c0-.78-.63-1.42-1.42-1.42h-2.42c-.78,0-1.42.63-1.42,1.42v11.79c0,4.97,4.02,9.01,8.98,9.06,0,0-.01,0-.01,0h11.66s0,0,.01,0c1.92,0,3.99.74,6.2,4.52.54.93.82,2.01.72,3.08-.32,3.56-3.28,6.28-6.79,6.35h-53.27c-4.29-.16-8.19,1.93-10.5,5.25-1.19,1.71-1.97,3.74-2.15,5.96-.54,6.72,4.48,12.62,11.19,13.17.24.02.7.03.95.03h0s.16,0,.16,0h25.4v.03s.09-.01.13-.01c.07,0,.13,0,.2,0,.13,0,.25,0,.38.02,1.86.15,3.54,1.02,4.75,2.43,1.21,1.42,1.79,3.22,1.64,5.08-.15,1.86-1.02,3.54-2.43,4.75-1.05.89-2.32,1.44-3.66,1.6-.22.03-.65.06-.87.07h.06s-.02,0-.02,0h0s-.04,0-.04,0H34.33c-.78,0-1.42.63-1.42,1.42v2.42c0,.78.63,1.42,1.41,1.42,5.48,0,25.93,0,43.07,0,5.51,0,10.67,0,14.89,0,5.24,0,9.01,0,10.16,0,.13,0,.22,0,.28,0,0,0,0,0,0,0h-.08c.45,0,.9-.03,1.34-.08.15-.02.3-.04.45-.06.27-.04.55-.09.81-.15.2-.04.39-.09.59-.14.21-.06.42-.13.62-.2.87-.29,1.7-.69,2.49-1.16.06-.04.13-.08.19-.12.26-.17.51-.34.76-.52.05-.04.1-.08.15-.12.02-.01.03-.02.05-.04.94-.73,1.76-1.6,2.45-2.57v-.07h.05c1.2-1.72,1.99-3.76,2.17-5.99.24-2.94-.59-5.73-2.16-7.98h.07c-.04-.05-.08-.1-.12-.16-.19-.26-.38-.52-.59-.77-.66-.77-1.4-1.44-2.2-2.01-1.78-1.28-3.88-2.07-6.12-2.25-.37-.03-.74-.03-1.1-.03-.18,0-.35,0-.53.02-.05,0-.1,0-.15,0h-.7s-14.2-.05-14.2-.05h-10.02c-.2,0-.41,0-.56-.02-3.83-.31-6.7-3.68-6.38-7.51.15-1.86,1.02-3.54,2.43-4.75,1.2-1.02,2.67-1.57,4.22-1.63.1,0,.19-.03.29-.03.16,0,.32,0,.48.02.03,0,.07,0,.1,0,0,0,0,0,0,0h53.02s0,0,0,0c4.09,0,7.77-2.06,10-5.25,1.2-1.71,1.98-3.75,2.16-5.98h0c.24-2.94-.59-5.72-2.15-7.96-2.02-2.89-5.26-4.9-9.04-5.21Z"/>
    </g>
  </g>
</svg>