<?xml version="1.0" encoding="UTF-8"?>
<svg id="_레이어_2" data-name="레이어 2" xmlns="http://www.w3.org/2000/svg" viewBox="0 0 116.22 107.28">
  <defs>
    <style>
      .cls-1 {
        fill: #353636;
        stroke-width: 0px;
      }
    </style>
  </defs>
  <g id="_레이어_1-2" data-name="레이어 1">
    <g>
      <rect class="cls-1" x="23.05" y="75.97" width="17.01" height="9.58"/>
      <path class="cls-1" d="m107.87,40.21v-22.2c0-9.93-8.08-18.02-18.02-18.02H27.56C17.63,0,9.55,8.08,9.55,18.02v22.2H0v13.64h9.55v49.67c0,2.07,1.68,3.75,3.75,3.75h12.13c2.07,0,3.75-1.68,3.75-3.75v-1.11h59.07v1.11c0,2.07,1.68,3.75,3.75,3.75h12.13c2.07,0,3.75-1.68,3.75-3.75v-49.67h8.35v-13.64h-8.35ZM27.56,7.45h62.29c5.5,0,10.03,4.23,10.51,9.61H17.05c.48-5.38,5.01-9.61,10.51-9.61Zm-10.56,19.2h36.14l.07,32.12H17V26.65Zm83.42,42.19v15.55c0,5.82-4.74,10.56-10.56,10.56H27.56c-5.82,0-10.56-4.74-10.56-10.56v-18.17h83.42v2.61Zm0-10.07h-37.62l-.08-32.12h37.69v32.12Z"/>
      <rect class="cls-1" x="76.17" y="75.97" width="17.01" height="9.58"/>
    </g>
  </g>
</svg>