<?xml version="1.0" encoding="UTF-8"?>
<svg id="_레이어_2" data-name="레이어 2" xmlns="http://www.w3.org/2000/svg" viewBox="0 0 116.22 90.33">
  <defs>
    <style>
      .cls-1 {
        fill: #353636;
        stroke-width: 0px;
      }
    </style>
  </defs>
  <g id="_레이어_1-2" data-name="레이어 1">
    <g>
      <path class="cls-1" d="m66.14,47.59c-1.9-11.37-11.8-20.07-23.7-20.07s-22.4,9.23-23.85,21.11C8.15,49.79,0,58.67,0,69.41c0,5.35,2.03,10.21,5.34,13.91,3.83,4.29,9.39,7,15.58,7h42.73c6.26,0,11.89-2.71,15.81-7,3.49-3.82,5.64-8.88,5.64-14.44,0-10.98-8.3-20.05-18.95-21.29Zm-2.5,35.74H20.92c-7.67,0-13.91-6.24-13.91-13.91,0-6.94,5.11-12.69,11.77-13.73.03,0,.05,0,.08-.01.35,2.72,1.36,6.39,4.03,9.85.69.9,1.73,1.36,2.78,1.36.75,0,1.5-.24,2.14-.73,1.53-1.18,1.82-3.38.63-4.91-1.23-1.59-1.91-3.26-2.29-4.72,0,0,.02,0,.02,0-.07-.23-.13-.46-.19-.7-.36-1.37-.56-2.8-.56-4.28,0-.31.02-.62.04-.93.04-.53.09-1.06.16-1.57,1.22-8.2,8.29-14.52,16.82-14.52s14.97,5.75,16.63,13.41c.25,1.17.4,2.38.4,3.62,0,.51-.02,1.02-.07,1.52-.09.97.77,1.76,1.73,1.59.82-.15,1.66-.23,2.52-.23s1.77.09,2.62.25c6.72,1.24,11.83,7.13,11.83,14.2,0,7.97-6.48,14.44-14.45,14.44Z"/>
      <path class="cls-1" d="m93.79,25.57c-4.03-4.98-10.02-8.02-16.43-8.33-6.53-.32-12.75,2.16-17.5,6.99-1.36,1.38-1.34,3.6.04,4.95,1.38,1.36,3.6,1.34,4.95-.04,3.33-3.39,7.66-5.14,12.17-4.91,4.42.22,8.55,2.31,11.32,5.74,4.86,6.01,5.49,15.96-1.85,22.22-1.47,1.25-1.65,3.46-.39,4.94.69.81,1.68,1.23,2.67,1.23.8,0,1.61-.27,2.27-.84,9.49-8.09,10.7-22.12,2.75-31.95Z"/>
      <path class="cls-1" d="m52.3,20.63c.68.68,1.58,1.03,2.48,1.03s1.79-.34,2.48-1.03c1.37-1.37,1.37-3.59,0-4.95l-3.97-3.97c-1.37-1.37-3.59-1.37-4.95,0-1.37,1.37-1.37,3.59,0,4.95l3.97,3.97Z"/>
      <path class="cls-1" d="m76.39,12.62c1.93,0,3.5-1.57,3.5-3.5V3.5c0-1.93-1.57-3.5-3.5-3.5s-3.5,1.57-3.5,3.5v5.62c0,1.93,1.57,3.5,3.5,3.5Z"/>
      <path class="cls-1" d="m98.07,21.52c.9,0,1.79-.34,2.48-1.03l3.97-3.97c1.37-1.37,1.37-3.59,0-4.95-1.37-1.37-3.59-1.37-4.95,0l-3.97,3.97c-1.37,1.37-1.37,3.59,0,4.95.68.68,1.58,1.03,2.48,1.03Z"/>
      <path class="cls-1" d="m112.72,36.13h-5.62c-1.93,0-3.5,1.57-3.5,3.5s1.57,3.5,3.5,3.5h5.62c1.93,0,3.5-1.57,3.5-3.5s-1.57-3.5-3.5-3.5Z"/>
      <path class="cls-1" d="m100.68,58.83c-1.37-1.37-3.58-1.37-4.95,0-1.37,1.37-1.37,3.59,0,4.95l3.97,3.97c.68.68,1.58,1.03,2.48,1.03s1.79-.34,2.48-1.03c1.37-1.37,1.37-3.59,0-4.95l-3.97-3.97Z"/>
    </g>
  </g>
</svg>