<svg width="72" height="72" viewBox="0 0 72 72" fill="none" xmlns="http://www.w3.org/2000/svg">
<path d="M64.5 4.05312e-05H7.16667C3.225 4.05312e-05 0 3.22504 0 7.16671V50.1667C0 54.1084 3.225 57.3334 7.16667 57.3334H21.5V68.0834C21.5 70.2334 22.9333 71.6667 25.0833 71.6667H26.875C27.5917 71.6667 28.6667 71.3084 29.3833 70.5917L42.6417 57.3334H64.5C68.4417 57.3334 71.6667 54.1084 71.6667 50.1667V7.16671C71.6667 3.22504 68.4417 4.05312e-05 64.5 4.05312e-05ZM67.8334 53.8334H39.8334L25.3334 68.8334V53.3334H3.83337V3.33341H67.8334V53.8334ZM50.1667 30.3334V26.3334H29.3334L38.3334 16.8334L35.8333 14.3334L21.5 28.6667L35.8333 43L38.3334 40.3334L29.3334 30.3334H50.1667Z" fill="white"/>
</svg>
