<svg width="18" height="16" viewBox="0 0 18 16" fill="none" xmlns="http://www.w3.org/2000/svg">
<path d="M17.8705 15.3287L13.2818 11.2222C14.1517 10.0576 14.6668 8.62874 14.6668 7.08592C14.6668 3.17854 11.3772 0 7.3334 0C3.28956 0 0 3.17854 0 7.08592C0 10.9933 3.28956 14.1718 7.3334 14.1718C9.4921 14.1718 11.4345 13.2661 12.7782 11.8272L17.3268 15.8971C17.4035 15.9657 17.502 16 17.5992 16C17.7068 16 17.8144 15.958 17.8934 15.8761C18.0434 15.7191 18.0342 15.4747 17.8717 15.3287H17.8705ZM7.3334 13.3977C3.73137 13.3977 0.801215 10.5664 0.801215 7.08592C0.801215 3.60545 3.73137 0.774176 7.3334 0.774176C10.9354 0.774176 13.8656 3.60545 13.8656 7.08592C13.8656 10.5664 10.9354 13.3977 7.3334 13.3977Z" fill="white"/>
</svg>
