<svg fill="none" height="32" viewBox="0 0 32 32" width="32" xmlns="http://www.w3.org/2000/svg"><g fill="#fff"><path d="m18.6 16-4.2-2.4v4.8z"/><path clip-rule="evenodd" d="m0 16c0-8.83656 7.16344-16 16-16 8.8366 0 16 7.16344 16 16 0 8.8366-7.1634 16-16 16-8.83656 0-16-7.1634-16-16zm22.2-5.3c.7.2 1.2.7 1.4 1.4.4 1.3.4 3.9.4 3.9s0 2.6-.3 3.9c-.2.7-.7 1.2-1.4 1.4-1.3.3-6.3.3-6.3.3s-5.1 0-6.3-.3c-.7-.2-1.2-.7-1.4-1.4-.3-1.3-.3-3.9-.3-3.9s0-2.6.2-3.9c.2-.7.70001-1.2 1.40001-1.4 1.29999-.3 6.29999-.3 6.29999-.3s5.1 0 6.3.3z" fill-rule="evenodd"/></g></svg>